<svg 
 xmlns="http://www.w3.org/2000/svg"
 xmlns:xlink="http://www.w3.org/1999/xlink"
 width="126px" height="53px">
<path fill-rule="evenodd"  fill="rgb(254, 62, 87)"
 d="M124.258,36.491 C123.297,36.491 122.517,35.712 122.517,34.753 C122.517,33.793 123.297,33.15 124.258,33.15 C125.220,33.15 125.999,33.793 125.999,34.753 C125.999,35.712 125.220,36.491 124.258,36.491 ZM124.258,19.983 C123.297,19.983 122.517,19.204 122.517,18.245 C122.517,17.285 123.297,16.507 124.258,16.507 C125.220,16.507 125.999,17.285 125.999,18.245 C125.999,19.204 125.220,19.983 124.258,19.983 ZM124.258,3.475 C123.297,3.475 122.517,2.697 122.517,1.736 C122.517,0.777 123.297,0.0 124.258,0.0 C125.220,0.0 125.999,0.777 125.999,1.736 C125.999,2.697 125.220,3.475 124.258,3.475 ZM110.549,52.999 C109.587,52.999 108.808,52.220 108.808,51.261 C108.808,50.301 109.587,49.523 110.549,49.523 C111.510,49.523 112.290,50.301 112.290,51.261 C112.290,52.220 111.510,52.999 110.549,52.999 ZM110.549,36.491 C109.587,36.491 108.808,35.712 108.808,34.753 C108.808,33.793 109.587,33.15 110.549,33.15 C111.510,33.15 112.290,33.793 112.290,34.753 C112.290,35.712 111.510,36.491 110.549,36.491 ZM110.549,19.983 C109.587,19.983 108.808,19.204 108.808,18.245 C108.808,17.285 109.587,16.507 110.549,16.507 C111.510,16.507 112.290,17.285 112.290,18.245 C112.290,19.204 111.510,19.983 110.549,19.983 ZM110.549,3.475 C109.587,3.475 108.808,2.697 108.808,1.736 C108.808,0.777 109.587,0.0 110.549,0.0 C111.510,0.0 112.290,0.777 112.290,1.736 C112.290,2.697 111.510,3.475 110.549,3.475 ZM97.56,52.999 C96.95,52.999 95.315,52.220 95.315,51.261 C95.315,50.301 96.95,49.523 97.56,49.523 C98.18,49.523 98.797,50.301 98.797,51.261 C98.797,52.220 98.18,52.999 97.56,52.999 ZM97.56,36.491 C96.95,36.491 95.315,35.712 95.315,34.753 C95.315,33.793 96.95,33.15 97.56,33.15 C98.18,33.15 98.797,33.793 98.797,34.753 C98.797,35.712 98.18,36.491 97.56,36.491 ZM97.56,19.983 C96.95,19.983 95.315,19.204 95.315,18.245 C95.315,17.285 96.95,16.507 97.56,16.507 C98.18,16.507 98.797,17.285 98.797,18.245 C98.797,19.204 98.18,19.983 97.56,19.983 ZM97.56,3.475 C96.95,3.475 95.315,2.697 95.315,1.736 C95.315,0.777 96.95,0.0 97.56,0.0 C98.18,0.0 98.797,0.777 98.797,1.736 C98.797,2.697 98.18,3.475 97.56,3.475 ZM83.347,52.999 C82.385,52.999 81.606,52.220 81.606,51.261 C81.606,50.301 82.385,49.523 83.347,49.523 C84.308,49.523 85.87,50.301 85.87,51.261 C85.87,52.220 84.308,52.999 83.347,52.999 ZM83.347,36.491 C82.385,36.491 81.606,35.712 81.606,34.753 C81.606,33.793 82.385,33.15 83.347,33.15 C84.308,33.15 85.87,33.793 85.87,34.753 C85.87,35.712 84.308,36.491 83.347,36.491 ZM83.347,19.983 C82.385,19.983 81.606,19.204 81.606,18.245 C81.606,17.285 82.385,16.507 83.347,16.507 C84.308,16.507 85.87,17.285 85.87,18.245 C85.87,19.204 84.308,19.983 83.347,19.983 ZM83.347,3.475 C82.385,3.475 81.606,2.697 81.606,1.736 C81.606,0.777 82.385,0.0 83.347,0.0 C84.308,0.0 85.87,0.777 85.87,1.736 C85.87,2.697 84.308,3.475 83.347,3.475 ZM69.854,52.999 C68.893,52.999 68.113,52.220 68.113,51.261 C68.113,50.301 68.893,49.523 69.854,49.523 C70.816,49.523 71.595,50.301 71.595,51.261 C71.595,52.220 70.816,52.999 69.854,52.999 ZM69.854,36.491 C68.893,36.491 68.113,35.712 68.113,34.753 C68.113,33.793 68.893,33.15 69.854,33.15 C70.816,33.15 71.595,33.793 71.595,34.753 C71.595,35.712 70.816,36.491 69.854,36.491 ZM69.854,19.983 C68.893,19.983 68.113,19.204 68.113,18.245 C68.113,17.285 68.893,16.507 69.854,16.507 C70.816,16.507 71.595,17.285 71.595,18.245 C71.595,19.204 70.816,19.983 69.854,19.983 ZM69.854,3.475 C68.893,3.475 68.113,2.697 68.113,1.736 C68.113,0.777 68.893,0.0 69.854,0.0 C70.816,0.0 71.595,0.777 71.595,1.736 C71.595,2.697 70.816,3.475 69.854,3.475 ZM56.144,52.999 C55.183,52.999 54.403,52.220 54.403,51.261 C54.403,50.301 55.183,49.523 56.144,49.523 C57.106,49.523 57.885,50.301 57.885,51.261 C57.885,52.220 57.106,52.999 56.144,52.999 ZM56.144,36.491 C55.183,36.491 54.403,35.712 54.403,34.753 C54.403,33.793 55.183,33.15 56.144,33.15 C57.106,33.15 57.885,33.793 57.885,34.753 C57.885,35.712 57.106,36.491 56.144,36.491 ZM56.144,19.983 C55.183,19.983 54.403,19.204 54.403,18.245 C54.403,17.285 55.183,16.507 56.144,16.507 C57.106,16.507 57.885,17.285 57.885,18.245 C57.885,19.204 57.106,19.983 56.144,19.983 ZM56.144,3.475 C55.183,3.475 54.403,2.697 54.403,1.736 C54.403,0.777 55.183,0.0 56.144,0.0 C57.106,0.0 57.885,0.777 57.885,1.736 C57.885,2.697 57.106,3.475 56.144,3.475 ZM42.652,52.999 C41.691,52.999 40.911,52.220 40.911,51.261 C40.911,50.301 41.691,49.523 42.652,49.523 C43.614,49.523 44.393,50.301 44.393,51.261 C44.393,52.220 43.614,52.999 42.652,52.999 ZM42.652,36.491 C41.691,36.491 40.911,35.712 40.911,34.753 C40.911,33.793 41.691,33.15 42.652,33.15 C43.614,33.15 44.393,33.793 44.393,34.753 C44.393,35.712 43.614,36.491 42.652,36.491 ZM42.652,19.983 C41.691,19.983 40.911,19.204 40.911,18.245 C40.911,17.285 41.691,16.507 42.652,16.507 C43.614,16.507 44.393,17.285 44.393,18.245 C44.393,19.204 43.614,19.983 42.652,19.983 ZM42.652,3.475 C41.691,3.475 40.911,2.697 40.911,1.736 C40.911,0.777 41.691,0.0 42.652,0.0 C43.614,0.0 44.393,0.777 44.393,1.736 C44.393,2.697 43.614,3.475 42.652,3.475 ZM28.942,52.999 C27.981,52.999 27.201,52.220 27.201,51.261 C27.201,50.301 27.981,49.523 28.942,49.523 C29.904,49.523 30.683,50.301 30.683,51.261 C30.683,52.220 29.904,52.999 28.942,52.999 ZM28.942,36.491 C27.981,36.491 27.201,35.712 27.201,34.753 C27.201,33.793 27.981,33.15 28.942,33.15 C29.904,33.15 30.683,33.793 30.683,34.753 C30.683,35.712 29.904,36.491 28.942,36.491 ZM28.942,19.983 C27.981,19.983 27.201,19.204 27.201,18.245 C27.201,17.285 27.981,16.507 28.942,16.507 C29.904,16.507 30.683,17.285 30.683,18.245 C30.683,19.204 29.904,19.983 28.942,19.983 ZM28.942,3.475 C27.981,3.475 27.201,2.697 27.201,1.736 C27.201,0.777 27.981,0.0 28.942,0.0 C29.904,0.0 30.683,0.777 30.683,1.736 C30.683,2.697 29.904,3.475 28.942,3.475 ZM15.450,52.999 C14.489,52.999 13.709,52.220 13.709,51.261 C13.709,50.301 14.489,49.523 15.450,49.523 C16.412,49.523 17.191,50.301 17.191,51.261 C17.191,52.220 16.412,52.999 15.450,52.999 ZM15.450,36.491 C14.489,36.491 13.709,35.712 13.709,34.753 C13.709,33.793 14.489,33.15 15.450,33.15 C16.412,33.15 17.191,33.793 17.191,34.753 C17.191,35.712 16.412,36.491 15.450,36.491 ZM15.450,19.983 C14.489,19.983 13.709,19.204 13.709,18.245 C13.709,17.285 14.489,16.507 15.450,16.507 C16.412,16.507 17.191,17.285 17.191,18.245 C17.191,19.204 16.412,19.983 15.450,19.983 ZM15.450,3.475 C14.489,3.475 13.709,2.697 13.709,1.736 C13.709,0.777 14.489,0.0 15.450,0.0 C16.412,0.0 17.191,0.777 17.191,1.736 C17.191,2.697 16.412,3.475 15.450,3.475 ZM1.740,52.999 C0.779,52.999 0.0,52.220 0.0,51.261 C0.0,50.301 0.779,49.523 1.740,49.523 C2.702,49.523 3.481,50.301 3.481,51.261 C3.481,52.220 2.702,52.999 1.740,52.999 ZM1.740,36.491 C0.779,36.491 0.0,35.712 0.0,34.753 C0.0,33.793 0.779,33.15 1.740,33.15 C2.702,33.15 3.481,33.793 3.481,34.753 C3.481,35.712 2.702,36.491 1.740,36.491 ZM1.740,19.983 C0.779,19.983 0.0,19.204 0.0,18.245 C0.0,17.285 0.779,16.507 1.740,16.507 C2.702,16.507 3.481,17.285 3.481,18.245 C3.481,19.204 2.702,19.983 1.740,19.983 ZM1.740,3.475 C0.779,3.475 0.0,2.697 0.0,1.736 C0.0,0.777 0.779,0.0 1.740,0.0 C2.702,0.0 3.481,0.777 3.481,1.736 C3.481,2.697 2.702,3.475 1.740,3.475 ZM124.258,49.523 C125.220,49.523 125.999,50.301 125.999,51.261 C125.999,52.220 125.220,52.999 124.258,52.999 C123.297,52.999 122.517,52.220 122.517,51.261 C122.517,50.301 123.297,49.523 124.258,49.523 Z"/>
</svg>