<svg 
 xmlns="http://www.w3.org/2000/svg"
 xmlns:xlink="http://www.w3.org/1999/xlink"
 width="65px" height="52px">
<path fill-rule="evenodd"  fill="rgb(254, 62, 87)"
 d="M63.249,39.874 C62.283,39.874 61.499,39.98 61.499,38.140 C61.499,37.182 62.283,36.406 63.249,36.406 C64.216,36.406 64.999,37.182 64.999,38.140 C64.999,39.98 64.216,39.874 63.249,39.874 ZM63.249,27.718 C62.283,27.718 61.499,26.949 61.499,25.999 C61.499,25.50 62.283,24.280 63.249,24.280 C64.216,24.280 64.999,25.50 64.999,25.999 C64.999,26.949 64.216,27.718 63.249,27.718 ZM63.249,15.593 C62.283,15.593 61.499,14.817 61.499,13.859 C61.499,12.901 62.283,12.124 63.249,12.124 C64.216,12.124 64.999,12.901 64.999,13.859 C64.999,14.817 64.216,15.593 63.249,15.593 ZM63.249,3.468 C62.283,3.468 61.499,2.691 61.499,1.734 C61.499,0.776 62.283,0.0 63.249,0.0 C64.216,0.0 64.999,0.776 64.999,1.734 C64.999,2.691 64.216,3.468 63.249,3.468 ZM50.953,51.999 C49.977,51.999 49.187,51.223 49.187,50.265 C49.187,49.307 49.977,48.531 50.953,48.531 C51.928,48.531 52.718,49.307 52.718,50.265 C52.718,51.223 51.928,51.999 50.953,51.999 ZM50.953,39.874 C49.977,39.874 49.187,39.98 49.187,38.140 C49.187,37.182 49.977,36.406 50.953,36.406 C51.928,36.406 52.718,37.182 52.718,38.140 C52.718,39.98 51.928,39.874 50.953,39.874 ZM50.953,27.718 C49.977,27.718 49.187,26.949 49.187,25.999 C49.187,25.50 49.977,24.280 50.953,24.280 C51.928,24.280 52.718,25.50 52.718,25.999 C52.718,26.949 51.928,27.718 50.953,27.718 ZM50.953,15.593 C49.977,15.593 49.187,14.817 49.187,13.859 C49.187,12.901 49.977,12.124 50.953,12.124 C51.928,12.124 52.718,12.901 52.718,13.859 C52.718,14.817 51.928,15.593 50.953,15.593 ZM50.953,3.468 C49.977,3.468 49.187,2.691 49.187,1.734 C49.187,0.776 49.977,0.0 50.953,0.0 C51.928,0.0 52.718,0.776 52.718,1.734 C52.718,2.691 51.928,3.468 50.953,3.468 ZM38.656,51.999 C37.689,51.999 36.906,51.223 36.906,50.265 C36.906,49.307 37.689,48.531 38.656,48.531 C39.622,48.531 40.406,49.307 40.406,50.265 C40.406,51.223 39.622,51.999 38.656,51.999 ZM38.656,39.874 C37.689,39.874 36.906,39.98 36.906,38.140 C36.906,37.182 37.689,36.406 38.656,36.406 C39.622,36.406 40.406,37.182 40.406,38.140 C40.406,39.98 39.622,39.874 38.656,39.874 ZM38.656,27.718 C37.689,27.718 36.906,26.949 36.906,25.999 C36.906,25.50 37.689,24.280 38.656,24.280 C39.622,24.280 40.406,25.50 40.406,25.999 C40.406,26.949 39.622,27.718 38.656,27.718 ZM38.656,15.593 C37.689,15.593 36.906,14.817 36.906,13.859 C36.906,12.901 37.689,12.124 38.656,12.124 C39.622,12.124 40.406,12.901 40.406,13.859 C40.406,14.817 39.622,15.593 38.656,15.593 ZM38.656,3.468 C37.689,3.468 36.906,2.691 36.906,1.734 C36.906,0.776 37.689,0.0 38.656,0.0 C39.622,0.0 40.406,0.776 40.406,1.734 C40.406,2.691 39.622,3.468 38.656,3.468 ZM26.343,51.999 C25.377,51.999 24.593,51.223 24.593,50.265 C24.593,49.307 25.377,48.531 26.343,48.531 C27.310,48.531 28.93,49.307 28.93,50.265 C28.93,51.223 27.310,51.999 26.343,51.999 ZM26.343,39.874 C25.377,39.874 24.593,39.98 24.593,38.140 C24.593,37.182 25.377,36.406 26.343,36.406 C27.310,36.406 28.93,37.182 28.93,38.140 C28.93,39.98 27.310,39.874 26.343,39.874 ZM26.343,27.718 C25.377,27.718 24.593,26.949 24.593,25.999 C24.593,25.50 25.377,24.280 26.343,24.280 C27.310,24.280 28.93,25.50 28.93,25.999 C28.93,26.949 27.310,27.718 26.343,27.718 ZM26.343,15.593 C25.377,15.593 24.593,14.817 24.593,13.859 C24.593,12.901 25.377,12.124 26.343,12.124 C27.310,12.124 28.93,12.901 28.93,13.859 C28.93,14.817 27.310,15.593 26.343,15.593 ZM26.343,3.468 C25.377,3.468 24.593,2.691 24.593,1.734 C24.593,0.776 25.377,0.0 26.343,0.0 C27.310,0.0 28.93,0.776 28.93,1.734 C28.93,2.691 27.310,3.468 26.343,3.468 ZM14.46,51.999 C13.71,51.999 12.281,51.223 12.281,50.265 C12.281,49.307 13.71,48.531 14.46,48.531 C15.21,48.531 15.812,49.307 15.812,50.265 C15.812,51.223 15.21,51.999 14.46,51.999 ZM14.46,39.874 C13.71,39.874 12.281,39.98 12.281,38.140 C12.281,37.182 13.71,36.406 14.46,36.406 C15.21,36.406 15.812,37.182 15.812,38.140 C15.812,39.98 15.21,39.874 14.46,39.874 ZM14.46,27.718 C13.71,27.718 12.281,26.949 12.281,25.999 C12.281,25.50 13.71,24.280 14.46,24.280 C15.21,24.280 15.812,25.50 15.812,25.999 C15.812,26.949 15.21,27.718 14.46,27.718 ZM14.46,15.593 C13.71,15.593 12.281,14.817 12.281,13.859 C12.281,12.901 13.71,12.124 14.46,12.124 C15.21,12.124 15.812,12.901 15.812,13.859 C15.812,14.817 15.21,15.593 14.46,15.593 ZM14.46,3.468 C13.71,3.468 12.281,2.691 12.281,1.734 C12.281,0.776 13.71,0.0 14.46,0.0 C15.21,0.0 15.812,0.776 15.812,1.734 C15.812,2.691 15.21,3.468 14.46,3.468 ZM1.749,51.999 C0.783,51.999 0.0,51.223 0.0,50.265 C0.0,49.307 0.783,48.531 1.749,48.531 C2.716,48.531 3.499,49.307 3.499,50.265 C3.499,51.223 2.716,51.999 1.749,51.999 ZM1.749,39.874 C0.783,39.874 0.0,39.98 0.0,38.140 C0.0,37.182 0.783,36.406 1.749,36.406 C2.716,36.406 3.499,37.182 3.499,38.140 C3.499,39.98 2.716,39.874 1.749,39.874 ZM1.749,27.718 C0.783,27.718 0.0,26.949 0.0,25.999 C0.0,25.50 0.783,24.280 1.749,24.280 C2.716,24.280 3.499,25.50 3.499,25.999 C3.499,26.949 2.716,27.718 1.749,27.718 ZM1.749,15.593 C0.783,15.593 0.0,14.817 0.0,13.859 C0.0,12.901 0.783,12.124 1.749,12.124 C2.716,12.124 3.499,12.901 3.499,13.859 C3.499,14.817 2.716,15.593 1.749,15.593 ZM1.749,3.468 C0.783,3.468 0.0,2.691 0.0,1.734 C0.0,0.776 0.783,0.0 1.749,0.0 C2.716,0.0 3.499,0.776 3.499,1.734 C3.499,2.691 2.716,3.468 1.749,3.468 ZM63.249,48.531 C64.216,48.531 64.999,49.307 64.999,50.265 C64.999,51.223 64.216,51.999 63.249,51.999 C62.283,51.999 61.499,51.223 61.499,50.265 C61.499,49.307 62.283,48.531 63.249,48.531 Z"/>
</svg>