<svg 
 xmlns="http://www.w3.org/2000/svg"
 xmlns:xlink="http://www.w3.org/1999/xlink"
 width="120px" height="121px">
<path fill-rule="evenodd"  fill="rgb(255, 181, 52)"
 d="M119.858,64.670 C119.837,64.982 119.579,65.220 119.273,65.220 C119.260,65.220 119.246,65.220 119.233,65.219 C118.909,65.198 118.665,64.915 118.687,64.589 C118.779,63.233 118.825,61.855 118.825,60.493 C118.825,59.247 118.786,57.986 118.709,56.741 C118.689,56.415 118.935,56.134 119.258,56.114 C119.590,56.91 119.861,56.342 119.881,56.668 C119.959,57.936 119.999,59.223 119.999,60.493 C119.999,61.882 119.951,63.287 119.858,64.670 ZM118.976,53.171 C118.949,53.175 118.924,53.176 118.898,53.176 C118.608,53.176 118.356,52.960 118.317,52.662 C118.141,51.313 117.915,49.953 117.647,48.620 C117.582,48.299 117.787,47.987 118.105,47.922 C118.426,47.857 118.732,48.64 118.796,48.384 C119.71,49.744 119.301,51.131 119.481,52.507 C119.523,52.832 119.297,53.129 118.976,53.171 ZM117.421,45.46 C117.369,45.61 117.316,45.69 117.264,45.69 C117.6,45.69 116.770,44.896 116.699,44.634 C116.340,43.325 115.929,42.10 115.479,40.725 C115.371,40.416 115.531,40.78 115.837,39.969 C116.143,39.861 116.477,40.22 116.585,40.330 C117.45,41.641 117.464,42.983 117.830,44.319 C117.917,44.634 117.733,44.959 117.421,45.46 ZM117.331,76.277 C117.643,76.365 117.824,76.692 117.735,77.7 C117.360,78.346 116.933,79.685 116.467,80.989 C116.381,81.230 116.155,81.380 115.915,81.380 C115.849,81.380 115.782,81.369 115.716,81.345 C115.411,81.234 115.253,80.895 115.363,80.588 C115.819,79.310 116.238,77.997 116.606,76.685 C116.694,76.370 117.20,76.189 117.331,76.277 ZM114.766,37.222 C114.690,37.255 114.611,37.271 114.533,37.271 C114.306,37.271 114.90,37.138 113.994,36.915 C113.460,35.672 112.873,34.428 112.250,33.216 C112.101,32.927 112.213,32.569 112.501,32.419 C112.788,32.269 113.143,32.381 113.292,32.672 C113.928,33.908 114.526,35.177 115.71,36.444 C115.200,36.744 115.63,37.93 114.766,37.222 ZM114.626,84.95 C114.923,84.227 115.57,84.576 114.926,84.875 C114.372,86.143 113.764,87.411 113.121,88.644 C113.16,88.845 112.812,88.961 112.601,88.961 C112.509,88.961 112.415,88.938 112.328,88.892 C112.41,88.740 111.931,88.382 112.82,88.93 C112.713,86.884 113.309,85.641 113.852,84.398 C113.983,84.99 114.330,83.964 114.626,84.95 ZM111.62,29.845 C110.967,29.904 110.861,29.932 110.757,29.932 C110.559,29.932 110.366,29.831 110.256,29.648 C109.554,28.489 108.802,27.338 108.21,26.226 C107.833,25.959 107.895,25.590 108.160,25.401 C108.425,25.212 108.791,25.275 108.978,25.541 C109.775,26.675 110.542,27.849 111.257,29.32 C111.427,29.311 111.339,29.675 111.62,29.845 ZM107.115,65.219 C107.98,65.219 107.81,65.218 107.64,65.217 C106.741,65.189 106.501,64.902 106.529,64.577 C106.644,63.230 106.702,61.856 106.702,60.493 C106.702,59.988 106.694,59.487 106.679,58.986 C106.668,58.659 106.923,58.385 107.246,58.375 C107.582,58.357 107.842,58.622 107.852,58.948 C107.868,59.461 107.876,59.976 107.876,60.493 C107.876,61.890 107.817,63.298 107.699,64.678 C107.672,64.987 107.416,65.219 107.115,65.219 ZM107.30,55.427 C107.7,55.430 106.984,55.431 106.961,55.431 C106.667,55.431 106.414,55.210 106.379,54.909 C106.220,53.556 106.1,52.199 105.728,50.875 C105.662,50.555 105.866,50.241 106.184,50.175 C106.500,50.108 106.811,50.314 106.878,50.634 C107.157,51.992 107.382,53.383 107.544,54.770 C107.582,55.95 107.352,55.389 107.30,55.427 ZM106.13,23.183 C105.843,23.183 105.674,23.110 105.558,22.967 C104.701,21.911 103.799,20.873 102.877,19.884 C102.655,19.646 102.667,19.271 102.903,19.48 C103.139,18.824 103.511,18.836 103.732,19.74 C104.673,20.83 105.593,21.140 106.467,22.217 C106.672,22.470 106.635,22.843 106.384,23.49 C106.275,23.140 106.144,23.183 106.13,23.183 ZM100.391,17.152 C100.248,17.152 100.105,17.100 99.992,16.994 C99.0,16.67 97.965,15.164 96.917,14.311 C96.664,14.105 96.625,13.733 96.828,13.479 C97.32,13.224 97.402,13.184 97.654,13.389 C98.723,14.260 99.779,15.181 100.790,16.127 C101.28,16.349 101.42,16.724 100.822,16.963 C100.706,17.88 100.549,17.152 100.391,17.152 ZM98.292,32.501 C98.186,32.580 98.63,32.618 97.941,32.618 C97.762,32.618 97.586,32.535 97.470,32.380 C96.667,31.293 95.806,30.226 94.909,29.210 C94.694,28.965 94.716,28.591 94.958,28.374 C95.200,28.157 95.571,28.178 95.786,28.423 C96.706,29.466 97.589,30.559 98.411,31.673 C98.605,31.935 98.551,32.305 98.292,32.501 ZM95.664,55.128 C95.712,55.451 95.490,55.751 95.170,55.800 C95.140,55.804 95.112,55.806 95.83,55.806 C94.796,55.806 94.546,55.595 94.503,55.301 C94.306,53.963 94.30,52.623 93.681,51.317 C93.597,51.1 93.783,50.676 94.96,50.591 C94.408,50.505 94.731,50.693 94.815,51.8 C95.175,52.359 95.461,53.745 95.664,55.128 ZM94.0,11.953 C93.884,11.953 93.767,11.918 93.664,11.845 C92.560,11.67 91.412,10.315 90.252,9.613 C89.974,9.445 89.884,9.81 90.51,8.801 C90.218,8.521 90.578,8.429 90.856,8.599 C92.40,9.315 93.211,10.82 94.337,10.876 C94.603,11.63 94.668,11.433 94.482,11.700 C94.368,11.864 94.185,11.953 94.0,11.953 ZM92.916,26.251 C92.800,26.373 92.645,26.436 92.489,26.436 C92.344,26.436 92.199,26.382 92.86,26.274 C91.108,25.341 90.77,24.439 89.22,23.594 C88.768,23.391 88.725,23.19 88.927,22.762 C89.128,22.507 89.498,22.464 89.752,22.667 C90.834,23.534 91.890,24.458 92.893,25.414 C93.129,25.638 93.139,26.14 92.916,26.251 ZM86.960,7.688 C86.870,7.688 86.779,7.667 86.694,7.623 C85.492,7.4 84.252,6.420 83.7,5.886 C82.709,5.757 82.570,5.410 82.697,5.109 C82.824,4.809 83.168,4.668 83.466,4.797 C84.737,5.341 86.2,5.938 87.228,6.569 C87.516,6.718 87.631,7.74 87.483,7.365 C87.380,7.570 87.174,7.688 86.960,7.688 ZM86.387,20.204 C86.658,20.385 86.732,20.753 86.553,21.25 C86.440,21.197 86.253,21.290 86.63,21.290 C85.952,21.290 85.840,21.258 85.740,21.192 C84.617,20.442 83.447,19.732 82.263,19.84 C81.979,18.928 81.873,18.569 82.28,18.282 C82.183,17.995 82.539,17.888 82.824,18.45 C84.37,18.710 85.236,19.436 86.387,20.204 ZM84.42,34.192 C83.926,34.323 83.765,34.390 83.604,34.390 C83.465,34.390 83.326,34.340 83.213,34.239 C82.211,33.337 81.147,32.485 80.50,31.707 C79.786,31.519 79.722,31.150 79.909,30.883 C80.95,30.616 80.461,30.551 80.727,30.740 C81.859,31.544 82.959,32.425 83.995,33.356 C84.237,33.574 84.258,33.948 84.42,34.192 ZM79.399,4.444 C79.336,4.444 79.271,4.433 79.208,4.411 C77.933,3.967 76.626,3.563 75.321,3.209 C75.8,3.124 74.823,2.799 74.907,2.484 C74.991,2.167 75.317,1.981 75.626,2.66 C76.957,2.427 78.291,2.840 79.591,3.293 C79.897,3.400 80.60,3.736 79.954,4.45 C79.870,4.290 79.643,4.444 79.399,4.444 ZM75.204,14.701 C76.515,15.143 77.821,15.649 79.86,16.204 C79.383,16.335 79.520,16.684 79.390,16.984 C79.294,17.206 79.78,17.339 78.851,17.339 C78.773,17.339 78.694,17.324 78.618,17.290 C77.383,16.748 76.110,16.254 74.831,15.823 C74.524,15.719 74.358,15.384 74.461,15.74 C74.564,14.764 74.898,14.598 75.204,14.701 ZM77.416,29.323 C77.309,29.520 77.107,29.632 76.899,29.632 C76.805,29.632 76.709,29.609 76.619,29.560 C75.439,28.914 74.209,28.331 72.965,27.828 C72.664,27.706 72.518,27.361 72.639,27.58 C72.758,26.754 73.100,26.608 73.402,26.729 C74.688,27.249 75.959,27.852 77.180,28.520 C77.465,28.676 77.570,29.35 77.416,29.323 ZM71.475,2.293 C71.437,2.293 71.400,2.289 71.361,2.282 C70.37,2.20 68.686,1.802 67.347,1.634 C67.25,1.593 66.797,1.298 66.837,0.974 C66.877,0.649 67.170,0.418 67.492,0.459 C68.857,0.631 70.235,0.854 71.587,1.120 C71.905,1.183 72.113,1.494 72.50,1.814 C71.995,2.97 71.750,2.293 71.475,2.293 ZM71.207,13.545 C71.523,13.621 71.717,13.941 71.641,14.258 C71.577,14.529 71.336,14.711 71.71,14.711 C71.26,14.711 70.979,14.707 70.933,14.695 C69.626,14.379 68.287,14.117 66.954,13.916 C66.633,13.868 66.412,13.566 66.460,13.243 C66.508,12.920 66.805,12.698 67.127,12.745 C68.494,12.951 69.867,13.220 71.207,13.545 ZM69.855,26.120 C69.784,26.383 69.548,26.556 69.289,26.556 C69.238,26.556 69.186,26.550 69.135,26.535 C67.842,26.182 66.513,25.902 65.184,25.702 C64.863,25.654 64.642,25.352 64.690,25.29 C64.738,24.706 65.37,24.484 65.357,24.531 C66.731,24.738 68.105,25.28 69.442,25.393 C69.755,25.479 69.940,25.804 69.855,26.120 ZM63.330,1.268 C63.319,1.268 63.309,1.267 63.297,1.267 C61.953,1.192 60.577,1.162 59.232,1.180 C59.229,1.180 59.227,1.180 59.225,1.180 C58.904,1.180 58.642,0.919 58.638,0.595 C58.634,0.268 58.893,0.0 59.217,0.3 C60.595,0.21 61.991,0.8 63.362,0.85 C63.686,0.103 63.934,0.382 63.916,0.709 C63.898,1.24 63.639,1.268 63.330,1.268 ZM62.993,12.306 C63.317,12.326 63.563,12.607 63.543,12.933 C63.524,13.247 63.266,13.488 62.958,13.488 C62.946,13.488 62.933,13.488 62.921,13.487 C61.576,13.404 60.211,13.378 58.867,13.409 C58.551,13.412 58.273,13.158 58.266,12.832 C58.258,12.505 58.515,12.234 58.839,12.226 C60.215,12.193 61.615,12.220 62.993,12.306 ZM61.202,24.152 C61.526,24.163 61.780,24.436 61.769,24.763 C61.759,25.90 61.489,25.348 61.163,25.334 C60.769,25.321 60.393,25.327 59.978,25.315 C59.29,25.315 58.70,25.354 57.126,25.431 C57.110,25.433 57.94,25.433 57.78,25.433 C56.775,25.433 56.518,25.199 56.493,24.890 C56.467,24.564 56.707,24.278 57.31,24.252 C58.6,24.172 58.998,24.131 59.978,24.131 C60.402,24.122 60.796,24.137 61.202,24.152 ZM55.169,1.370 C53.821,1.481 52.463,1.639 51.131,1.842 C51.102,1.846 51.72,1.849 51.43,1.849 C50.758,1.849 50.507,1.639 50.463,1.345 C50.415,1.22 50.636,0.721 50.956,0.672 C52.315,0.465 53.700,0.303 55.74,0.191 C55.398,0.166 55.681,0.407 55.707,0.733 C55.733,1.59 55.492,1.345 55.169,1.370 ZM54.693,12.504 C55.13,12.468 55.305,12.703 55.340,13.27 C55.376,13.353 55.143,13.645 54.821,13.680 C53.482,13.829 52.133,14.39 50.813,14.304 C50.774,14.311 50.736,14.315 50.698,14.315 C50.424,14.315 50.179,14.120 50.123,13.839 C50.60,13.518 50.266,13.206 50.584,13.143 C51.938,12.871 53.320,12.657 54.693,12.504 ZM53.589,25.299 C53.652,25.619 53.446,25.931 53.128,25.995 C51.812,26.259 50.498,26.605 49.222,27.21 C49.162,27.41 49.101,27.51 49.41,27.51 C48.794,27.51 48.563,26.891 48.483,26.641 C48.383,26.330 48.552,25.996 48.860,25.896 C50.179,25.465 51.538,25.108 52.899,24.834 C53.215,24.771 53.525,24.979 53.589,25.299 ZM47.135,2.594 C45.818,2.890 44.495,3.237 43.200,3.624 C43.144,3.641 43.88,3.649 43.33,3.649 C42.780,3.649 42.547,3.482 42.470,3.225 C42.378,2.912 42.555,2.583 42.866,2.490 C44.186,2.94 45.537,1.741 46.880,1.439 C47.197,1.370 47.510,1.569 47.581,1.888 C47.651,2.207 47.452,2.523 47.135,2.594 ZM46.547,14.140 C46.861,14.47 47.184,14.229 47.275,14.543 C47.365,14.856 47.187,15.185 46.876,15.276 C45.585,15.655 44.293,16.98 43.37,16.592 C42.967,16.620 42.895,16.633 42.824,16.633 C42.589,16.633 42.368,16.490 42.277,16.256 C42.160,15.951 42.309,15.608 42.611,15.489 C43.899,14.984 45.224,14.529 46.547,14.140 ZM45.750,27.715 C45.885,28.11 45.756,28.363 45.461,28.499 C44.244,29.62 43.44,29.704 41.897,30.407 C41.802,30.465 41.696,30.492 41.593,30.492 C41.394,30.492 41.201,30.392 41.91,30.208 C40.922,29.929 41.10,29.564 41.287,29.395 C42.474,28.669 43.713,28.6 44.972,27.423 C45.267,27.287 45.615,27.419 45.750,27.715 ZM39.346,4.928 C38.84,5.404 36.822,5.932 35.596,6.497 C35.516,6.533 35.434,6.549 35.353,6.549 C35.130,6.549 34.916,6.422 34.818,6.204 C34.684,5.906 34.813,5.555 35.108,5.420 C36.360,4.844 37.647,4.306 38.934,3.819 C39.237,3.704 39.576,3.860 39.690,4.166 C39.803,4.472 39.650,4.813 39.346,4.928 ZM38.676,31.886 C38.875,32.144 38.829,32.516 38.574,32.716 C37.516,33.546 36.494,34.448 35.536,35.398 C35.421,35.511 35.273,35.567 35.124,35.567 C34.973,35.567 34.821,35.508 34.706,35.390 C34.478,35.157 34.482,34.783 34.713,34.553 C35.703,33.573 36.760,32.641 37.853,31.783 C38.108,31.582 38.477,31.628 38.676,31.886 ZM36.346,86.364 C36.584,86.586 36.599,86.960 36.380,87.200 C36.264,87.327 36.106,87.391 35.948,87.391 C35.806,87.391 35.663,87.339 35.550,87.234 C34.529,86.285 33.553,85.268 32.650,84.209 C32.439,83.962 32.466,83.588 32.712,83.375 C32.956,83.162 33.327,83.189 33.540,83.438 C34.414,84.461 35.358,85.445 36.346,86.364 ZM30.472,41.723 C30.360,41.902 30.170,41.999 29.975,41.999 C29.868,41.999 29.759,41.970 29.662,41.908 C29.388,41.733 29.306,41.368 29.479,41.91 C30.221,39.909 31.39,38.758 31.909,37.670 C32.114,37.416 32.483,37.376 32.735,37.582 C32.987,37.786 33.27,38.159 32.823,38.414 C31.980,39.466 31.189,40.580 30.472,41.723 ZM29.239,25.37 C29.127,25.135 28.990,25.183 28.852,25.183 C28.689,25.183 28.527,25.114 28.410,24.981 C28.197,24.735 28.222,24.361 28.466,24.146 C29.504,23.230 30.595,22.348 31.709,21.525 C31.970,21.332 32.338,21.389 32.530,21.652 C32.721,21.917 32.664,22.286 32.403,22.479 C31.316,23.283 30.252,24.143 29.239,25.37 ZM31.961,8.324 C30.776,8.972 29.597,9.672 28.459,10.402 C28.361,10.464 28.252,10.494 28.144,10.494 C27.950,10.494 27.760,10.397 27.649,10.220 C27.474,9.945 27.555,9.578 27.829,9.403 C28.990,8.658 30.192,7.946 31.401,7.284 C31.688,7.128 32.42,7.235 32.197,7.522 C32.351,7.809 32.246,8.168 31.961,8.324 ZM28.240,44.495 C28.532,44.637 28.656,44.990 28.515,45.285 C27.933,46.507 27.418,47.775 26.982,49.52 C26.898,49.297 26.671,49.452 26.427,49.452 C26.364,49.452 26.299,49.441 26.236,49.419 C25.930,49.313 25.767,48.976 25.872,48.667 C26.322,47.347 26.855,46.37 27.457,44.773 C27.597,44.479 27.947,44.352 28.240,44.495 ZM23.623,30.928 C23.506,31.73 23.337,31.148 23.165,31.148 C23.36,31.148 22.906,31.104 22.797,31.16 C22.545,30.811 22.505,30.438 22.709,30.184 C23.576,29.102 24.500,28.45 25.457,27.40 C25.683,26.804 26.54,26.797 26.287,27.23 C26.521,27.249 26.528,27.624 26.304,27.860 C25.370,28.840 24.467,29.872 23.623,30.928 ZM21.920,15.263 C21.809,15.358 21.674,15.404 21.540,15.404 C21.373,15.404 21.208,15.332 21.93,15.195 C20.882,14.946 20.913,14.572 21.160,14.361 C22.210,13.462 23.303,12.589 24.410,11.766 C24.671,11.572 25.38,11.628 25.231,11.891 C25.423,12.154 25.368,12.524 25.107,12.718 C24.22,13.525 22.949,14.381 21.920,15.263 ZM21.213,34.217 C20.460,35.346 19.747,36.519 19.96,37.705 C18.988,37.900 18.788,38.10 18.581,38.10 C18.485,38.10 18.388,37.987 18.298,37.936 C18.14,37.778 17.911,37.418 18.69,37.132 C18.737,35.916 19.467,34.713 20.240,33.556 C20.420,33.286 20.785,33.214 21.54,33.396 C21.323,33.579 21.394,33.946 21.213,34.217 ZM16.100,20.984 C15.984,21.114 15.823,21.182 15.662,21.182 C15.523,21.182 15.383,21.132 15.271,21.31 C15.29,20.813 15.9,20.439 15.224,20.195 C16.140,19.162 17.106,18.146 18.93,17.175 C18.325,16.947 18.696,16.951 18.923,17.185 C19.149,17.419 19.144,17.794 18.912,18.22 C17.944,18.974 16.998,19.970 16.100,20.984 ZM16.989,40.585 C17.285,40.718 17.418,41.67 17.287,41.366 C16.738,42.609 16.238,43.889 15.800,45.172 C15.717,45.417 15.489,45.572 15.246,45.572 C15.183,45.572 15.118,45.561 15.55,45.539 C14.748,45.433 14.585,45.96 14.691,44.787 C15.139,43.472 15.651,42.159 16.214,40.885 C16.346,40.587 16.693,40.452 16.989,40.585 ZM14.651,49.91 C14.327,50.409 14.56,51.757 13.845,53.97 C13.800,53.389 13.550,53.597 13.266,53.597 C13.236,53.597 13.205,53.595 13.174,53.590 C12.854,53.539 12.635,53.236 12.686,52.913 C12.901,51.538 13.179,50.156 13.512,48.806 C13.590,48.488 13.907,48.295 14.223,48.374 C14.538,48.453 14.729,48.774 14.651,49.91 ZM11.112,27.458 C10.999,27.628 10.814,27.720 10.625,27.720 C10.512,27.720 10.398,27.687 10.298,27.619 C10.29,27.437 9.958,27.69 10.138,26.798 C10.906,25.645 11.724,24.504 12.569,23.408 C12.768,23.151 13.136,23.103 13.393,23.304 C13.649,23.505 13.695,23.876 13.496,24.135 C12.668,25.209 11.866,26.327 11.112,27.458 ZM10.904,93.214 C11.653,94.352 12.447,95.474 13.266,96.550 C13.463,96.810 13.414,97.181 13.157,97.380 C13.50,97.462 12.925,97.502 12.800,97.502 C12.624,97.502 12.450,97.422 12.334,97.270 C11.499,96.173 10.689,95.28 9.927,93.868 C9.747,93.596 9.821,93.228 10.91,93.48 C10.361,92.866 10.725,92.942 10.904,93.214 ZM7.55,34.564 C6.953,34.775 6.744,34.897 6.526,34.897 C6.440,34.897 6.353,34.877 6.270,34.837 C5.979,34.694 5.858,34.340 5.999,34.46 C6.602,32.798 7.257,31.554 7.944,30.349 C8.106,30.67 8.464,29.969 8.746,30.132 C9.27,30.295 9.124,30.656 8.961,30.940 C8.287,32.121 7.646,33.340 7.55,34.564 ZM6.898,86.93 C7.481,87.319 8.114,88.541 8.780,89.723 C8.940,90.7 8.840,90.368 8.558,90.530 C8.467,90.582 8.368,90.607 8.270,90.607 C8.65,90.607 7.867,90.499 7.758,90.306 C7.80,89.101 6.434,87.856 5.840,86.605 C5.699,86.310 5.823,85.956 6.115,85.815 C6.408,85.672 6.758,85.799 6.898,86.93 ZM4.11,42.171 C3.931,42.422 3.701,42.581 3.453,42.581 C3.393,42.581 3.332,42.571 3.272,42.552 C2.964,42.451 2.795,42.117 2.895,41.806 C3.320,40.488 3.797,39.164 4.313,37.871 C4.434,37.568 4.777,37.423 5.77,37.544 C5.377,37.666 5.523,38.10 5.402,38.314 C4.895,39.580 4.428,40.879 4.11,42.171 ZM2.892,46.112 C2.566,47.431 2.282,48.781 2.47,50.121 C1.997,50.408 1.750,50.610 1.470,50.610 C1.436,50.610 1.402,50.608 1.367,50.601 C1.48,50.544 0.835,50.238 0.892,49.915 C1.131,48.548 1.421,47.172 1.752,45.826 C1.831,45.508 2.150,45.314 2.464,45.395 C2.779,45.474 2.970,45.795 2.892,46.112 ZM1.480,54.180 C1.339,55.529 1.242,56.905 1.192,58.269 C1.180,58.588 0.920,58.838 0.606,58.838 C0.599,58.838 0.591,58.838 0.584,58.838 C0.260,58.826 0.7,58.551 0.19,58.225 C0.70,56.834 0.169,55.431 0.313,54.55 C0.347,53.730 0.639,53.496 0.958,53.529 C1.281,53.563 1.515,53.854 1.480,54.180 ZM0.575,61.796 C0.901,61.782 1.169,62.41 1.180,62.369 C1.221,63.728 1.310,65.103 1.445,66.459 C1.477,66.784 1.242,67.74 0.919,67.107 C0.899,67.108 0.880,67.109 0.860,67.109 C0.562,67.109 0.307,66.881 0.277,66.576 C0.140,65.194 0.48,63.791 0.6,62.405 C0.3,62.78 0.251,61.805 0.575,61.796 ZM1.311,70.36 C1.631,69.982 1.933,70.199 1.988,70.520 C2.215,71.865 2.491,73.215 2.809,74.535 C2.886,74.853 2.692,75.172 2.377,75.250 C2.331,75.261 2.284,75.266 2.238,75.266 C1.974,75.266 1.734,75.85 1.668,74.814 C1.344,73.468 1.62,72.91 0.831,70.720 C0.776,70.397 0.991,70.92 1.311,70.36 ZM3.168,78.97 C3.478,77.998 3.807,78.170 3.905,78.481 C4.315,79.781 4.775,81.79 5.271,82.342 C5.390,82.645 5.243,82.990 4.942,83.110 C4.871,83.138 4.798,83.152 4.726,83.152 C4.492,83.152 4.271,83.11 4.180,82.778 C3.674,81.490 3.205,80.165 2.787,78.840 C2.688,78.529 2.859,78.195 3.168,78.97 ZM12.702,61.848 C12.699,61.848 12.696,61.848 12.693,61.848 C12.373,61.848 12.111,61.588 12.106,61.265 C12.102,61.9 12.100,60.751 12.100,60.494 C12.100,59.358 12.139,58.208 12.218,57.77 C12.241,56.751 12.518,56.507 12.844,56.528 C13.168,56.551 13.411,56.834 13.388,57.159 C13.312,58.264 13.273,59.385 13.273,60.493 C13.274,60.744 13.276,60.996 13.280,61.246 C13.285,61.573 13.26,61.842 12.702,61.848 ZM12.949,69.594 C12.692,68.231 12.490,66.837 12.349,65.448 C12.316,65.123 12.551,64.832 12.873,64.799 C13.188,64.762 13.484,65.2 13.517,65.327 C13.655,66.682 13.852,68.43 14.103,69.373 C14.163,69.693 13.954,70.3 13.636,70.64 C13.599,70.71 13.562,70.74 13.525,70.74 C13.249,70.74 13.3,69.877 12.949,69.594 ZM14.311,72.942 C14.618,72.856 14.947,73.36 15.35,73.350 C15.402,74.656 15.831,75.962 16.309,77.231 C16.425,77.537 16.273,77.878 15.970,77.994 C15.901,78.21 15.830,78.34 15.761,78.34 C15.524,78.34 15.301,77.888 15.212,77.651 C14.722,76.350 14.282,75.11 13.906,73.673 C13.818,73.358 13.999,73.31 14.311,72.942 ZM15.848,99.715 C16.740,100.735 17.680,101.737 18.642,102.695 C18.872,102.925 18.874,103.299 18.646,103.531 C18.532,103.649 18.380,103.708 18.229,103.708 C18.80,103.708 17.931,103.650 17.816,103.537 C16.836,102.560 15.878,101.538 14.968,100.498 C14.753,100.254 14.776,99.879 15.20,99.663 C15.262,99.447 15.633,99.469 15.848,99.715 ZM17.131,80.709 C17.423,80.566 17.774,80.690 17.915,80.983 C18.502,82.205 19.149,83.416 19.838,84.581 C20.4,84.862 19.913,85.225 19.634,85.392 C19.540,85.449 19.437,85.476 19.335,85.476 C19.135,85.476 18.940,85.373 18.830,85.187 C18.123,83.993 17.460,82.752 16.858,81.499 C16.717,81.205 16.839,80.851 17.131,80.709 ZM21.632,105.474 C22.653,106.361 23.721,107.224 24.805,108.40 C25.65,108.236 25.118,108.607 24.924,108.868 C24.808,109.24 24.632,109.106 24.453,109.106 C24.331,109.106 24.208,109.69 24.102,108.988 C22.997,108.156 21.908,107.276 20.866,106.371 C20.620,106.157 20.593,105.785 20.804,105.536 C21.15,105.288 21.387,105.261 21.632,105.474 ZM25.446,52.270 C25.763,52.339 25.963,52.654 25.895,52.973 C25.609,54.291 25.398,55.644 25.266,56.993 C25.236,57.299 24.980,57.527 24.682,57.527 C24.663,57.527 24.644,57.526 24.624,57.524 C24.302,57.492 24.66,57.203 24.98,56.877 C24.234,55.482 24.453,54.84 24.747,52.722 C24.816,52.403 25.129,52.200 25.446,52.270 ZM24.513,92.43 C24.402,92.139 24.266,92.186 24.130,92.186 C23.965,92.186 23.801,92.117 23.685,91.980 C22.786,90.928 21.920,89.821 21.111,88.690 C20.922,88.425 20.981,88.55 21.244,87.864 C21.507,87.673 21.874,87.733 22.64,87.998 C22.852,89.101 23.697,90.181 24.575,91.209 C24.786,91.457 24.759,91.830 24.513,92.43 ZM24.504,60.479 C24.508,60.479 24.510,60.479 24.513,60.479 C24.834,60.479 25.95,60.737 25.100,61.61 C25.121,62.415 25.219,63.781 25.394,65.119 C25.437,65.443 25.210,65.741 24.889,65.784 C24.863,65.786 24.837,65.788 24.812,65.788 C24.522,65.788 24.270,65.572 24.231,65.274 C24.50,63.890 23.948,62.479 23.926,61.79 C23.921,60.752 24.180,60.484 24.504,60.479 ZM25.438,68.688 C25.754,68.608 26.72,68.800 26.151,69.117 C26.480,70.431 26.889,71.737 27.365,72.999 C27.480,73.304 27.328,73.646 27.25,73.762 C26.956,73.788 26.886,73.801 26.816,73.801 C26.580,73.801 26.357,73.656 26.268,73.419 C25.775,72.115 25.354,70.765 25.13,69.406 C24.934,69.90 25.124,68.768 25.438,68.688 ZM27.352,94.189 C28.314,95.137 29.330,96.55 30.373,96.917 C30.624,97.125 30.660,97.497 30.455,97.750 C30.338,97.893 30.170,97.966 30.0,97.966 C29.870,97.966 29.738,97.922 29.628,97.832 C28.559,96.948 27.518,96.7 26.531,95.36 C26.300,94.807 26.295,94.432 26.522,94.199 C26.749,93.965 27.120,93.961 27.352,94.189 ZM30.114,80.870 C29.335,79.711 28.616,78.496 27.977,77.258 C27.827,76.968 27.939,76.611 28.226,76.460 C28.515,76.310 28.869,76.423 29.18,76.712 C29.636,77.908 30.332,79.84 31.86,80.206 C31.268,80.476 31.198,80.845 30.929,81.28 C30.828,81.97 30.714,81.130 30.600,81.130 C30.412,81.130 30.227,81.39 30.114,80.870 ZM28.146,110.381 C29.282,111.119 30.457,111.827 31.640,112.483 C31.923,112.641 32.27,113.1 31.871,113.288 C31.763,113.483 31.563,113.594 31.356,113.594 C31.260,113.594 31.163,113.569 31.73,113.520 C29.867,112.850 28.668,112.129 27.510,111.375 C27.238,111.198 27.159,110.832 27.334,110.557 C27.510,110.282 27.873,110.203 28.146,110.381 ZM33.617,99.372 C34.729,100.140 35.887,100.868 37.59,101.536 C37.342,101.696 37.442,102.57 37.282,102.341 C37.175,102.534 36.975,102.642 36.771,102.642 C36.673,102.642 36.574,102.618 36.483,102.566 C35.281,101.881 34.93,101.136 32.953,100.349 C32.686,100.164 32.618,99.796 32.801,99.526 C32.984,99.257 33.349,99.188 33.617,99.372 ZM35.269,114.337 C36.496,114.910 37.758,115.447 39.20,115.933 C39.322,116.49 39.474,116.391 39.359,116.697 C39.270,116.933 39.47,117.78 38.811,117.78 C38.741,117.78 38.670,117.65 38.601,117.38 C37.314,116.544 36.27,115.996 34.775,115.411 C34.481,115.274 34.353,114.922 34.490,114.625 C34.626,114.329 34.973,114.200 35.269,114.337 ZM35.775,20.208 C35.679,20.266 35.574,20.294 35.470,20.294 C35.272,20.294 35.78,20.192 34.968,20.9 C34.799,19.730 34.888,19.366 35.165,19.196 C36.345,18.473 37.571,17.795 38.808,17.179 C39.97,17.34 39.451,17.154 39.594,17.448 C39.737,17.740 39.618,18.95 39.328,18.240 C38.121,18.840 36.925,19.503 35.775,20.208 ZM43.86,91.956 C42.979,92.148 42.779,92.257 42.575,92.257 C42.477,92.257 42.378,92.232 42.287,92.180 C41.81,91.493 39.900,90.727 38.776,89.903 C38.514,89.711 38.456,89.341 38.647,89.77 C38.839,88.812 39.205,88.754 39.467,88.946 C40.554,89.744 41.697,90.485 42.863,91.149 C43.146,91.311 43.246,91.671 43.86,91.956 ZM40.676,103.389 C41.903,103.951 43.168,104.465 44.438,104.917 C44.744,105.26 44.904,105.363 44.797,105.671 C44.711,105.915 44.485,106.67 44.243,106.67 C44.178,106.67 44.112,106.56 44.48,106.33 C42.746,105.570 41.448,105.42 40.190,104.466 C39.894,104.330 39.764,103.980 39.898,103.683 C40.32,103.386 40.378,103.252 40.676,103.389 ZM42.872,117.261 C44.162,117.656 45.485,118.10 46.802,118.315 C47.118,118.387 47.315,118.705 47.243,119.23 C47.181,119.297 46.939,119.483 46.671,119.483 C46.628,119.483 46.583,119.478 46.539,119.468 C45.196,119.158 43.848,118.797 42.532,118.393 C42.221,118.299 42.46,117.968 42.140,117.656 C42.234,117.343 42.562,117.166 42.872,117.261 ZM50.136,95.456 C50.83,95.456 50.28,95.449 49.974,95.433 C48.641,95.45 47.316,94.574 46.37,94.32 C45.738,93.905 45.598,93.559 45.723,93.257 C45.849,92.955 46.193,92.814 46.492,92.941 C47.729,93.465 49.10,93.921 50.299,94.295 C50.611,94.387 50.790,94.714 50.700,95.28 C50.627,95.288 50.392,95.456 50.136,95.456 ZM48.318,106.108 C49.619,106.445 50.953,106.729 52.285,106.952 C52.604,107.5 52.821,107.310 52.767,107.632 C52.720,107.922 52.471,108.127 52.189,108.127 C52.158,108.127 52.125,108.124 52.92,108.118 C50.727,107.891 49.359,107.600 48.25,107.254 C47.711,107.172 47.522,106.849 47.603,106.533 C47.684,106.216 48.10,106.27 48.318,106.108 ZM50.793,119.90 C52.127,119.301 53.484,119.467 54.829,119.585 C55.152,119.613 55.391,119.900 55.363,120.225 C55.336,120.534 55.80,120.766 54.779,120.766 C54.761,120.766 54.745,120.766 54.727,120.764 C53.356,120.644 51.971,120.474 50.611,120.260 C50.291,120.209 50.72,119.906 50.122,119.583 C50.173,119.261 50.471,119.38 50.793,119.90 ZM58.193,96.809 C56.804,96.740 55.408,96.589 54.44,96.361 C53.725,96.308 53.508,96.3 53.562,95.680 C53.614,95.358 53.912,95.138 54.237,95.194 C55.556,95.415 56.907,95.560 58.250,95.626 C58.574,95.643 58.824,95.920 58.808,96.247 C58.792,96.563 58.533,96.810 58.222,96.810 C58.212,96.810 58.203,96.809 58.193,96.809 ZM56.310,107.445 C57.525,107.541 58.762,107.589 59.988,107.589 L60.362,107.587 C60.364,107.587 60.365,107.587 60.366,107.587 C60.689,107.587 60.951,107.850 60.953,108.175 C60.956,108.501 60.695,108.768 60.370,108.771 L59.989,108.773 C58.732,108.773 57.464,108.723 56.218,108.625 C55.895,108.600 55.653,108.315 55.679,107.990 C55.704,107.663 55.970,107.420 56.310,107.445 ZM58.889,119.799 C60.238,119.825 61.608,119.803 62.956,119.736 C63.279,119.711 63.555,119.971 63.572,120.298 C63.588,120.624 63.338,120.901 63.15,120.918 C62.13,120.968 60.995,120.994 59.988,120.994 C59.614,120.994 59.240,120.990 58.868,120.983 C58.543,120.977 58.286,120.707 58.292,120.381 C58.298,120.54 58.557,119.805 58.889,119.799 ZM62.365,96.776 C62.352,96.777 62.339,96.777 62.326,96.777 C62.19,96.777 61.761,96.537 61.741,96.224 C61.720,95.898 61.965,95.616 62.288,95.595 C63.631,95.506 64.979,95.339 66.295,95.97 C66.615,95.40 66.920,95.251 66.978,95.573 C67.36,95.894 66.824,96.203 66.506,96.261 C65.146,96.512 63.752,96.684 62.365,96.776 ZM64.412,107.381 C65.756,107.253 67.108,107.65 68.429,106.822 C68.749,106.766 69.53,106.977 69.111,107.298 C69.170,107.619 68.958,107.928 68.640,107.987 C67.285,108.236 65.899,108.428 64.522,108.559 C64.503,108.560 64.485,108.561 64.466,108.561 C64.167,108.561 63.911,108.332 63.882,108.25 C63.852,107.700 64.89,107.412 64.412,107.381 ZM67.7,119.393 C68.350,119.232 69.702,119.22 71.25,118.768 C71.347,118.706 71.651,118.919 71.711,119.240 C71.772,119.561 71.563,119.870 71.244,119.931 C69.894,120.189 68.515,120.403 67.146,120.568 C67.123,120.571 67.99,120.572 67.76,120.572 C66.783,120.572 66.529,120.351 66.494,120.50 C66.455,119.725 66.686,119.431 67.7,119.393 ZM70.561,95.266 C70.504,95.283 70.446,95.292 70.389,95.292 C70.137,95.292 69.905,95.129 69.828,94.873 C69.733,94.561 69.907,94.230 70.217,94.134 C71.500,93.738 72.773,93.261 74.1,92.718 C74.300,92.586 74.644,92.723 74.775,93.22 C74.905,93.321 74.770,93.670 74.473,93.802 C73.203,94.363 71.887,94.856 70.561,95.266 ZM72.382,105.914 C73.682,105.554 74.980,105.133 76.242,104.660 C76.544,104.548 76.884,104.703 76.996,105.9 C77.109,105.316 76.954,105.656 76.650,105.770 C75.357,106.254 74.25,106.686 72.693,107.55 C72.641,107.70 72.589,107.77 72.537,107.77 C72.280,107.77 72.43,106.903 71.972,106.641 C71.886,106.326 72.70,106.0 72.382,105.914 ZM74.990,117.865 C76.294,117.519 77.604,117.122 78.883,116.685 C79.192,116.581 79.524,116.746 79.628,117.55 C79.732,117.365 79.567,117.701 79.261,117.806 C77.955,118.252 76.619,118.656 75.288,119.9 C75.239,119.22 75.189,119.29 75.139,119.29 C74.879,119.29 74.641,118.853 74.572,118.587 C74.490,118.271 74.677,117.948 74.990,117.865 ZM77.893,91.971 C77.691,91.971 77.495,91.867 77.386,91.679 C77.222,91.396 77.316,91.34 77.596,90.869 C78.752,90.186 79.883,89.427 80.955,88.613 C81.215,88.416 81.582,88.470 81.777,88.730 C81.972,88.991 81.920,89.362 81.661,89.559 C80.552,90.400 79.384,91.185 78.189,91.890 C78.96,91.945 77.994,91.971 77.893,91.971 ZM79.975,103.73 C81.189,102.492 82.395,101.850 83.560,101.163 C83.839,100.997 84.198,101.92 84.363,101.374 C84.526,101.657 84.432,102.18 84.153,102.184 C82.959,102.889 81.723,103.547 80.479,104.142 C80.397,104.181 80.312,104.199 80.227,104.199 C80.7,104.199 79.797,104.74 79.697,103.861 C79.557,103.565 79.682,103.213 79.975,103.73 ZM82.681,115.237 C83.923,114.713 85.165,114.138 86.371,113.527 C86.663,113.381 87.13,113.498 87.159,113.790 C87.305,114.82 87.188,114.438 86.898,114.584 C85.668,115.207 84.401,115.794 83.133,116.329 C83.60,116.361 82.983,116.376 82.907,116.376 C82.678,116.376 82.460,116.239 82.365,116.12 C82.240,115.711 82.381,115.363 82.681,115.237 ZM86.966,98.946 C88.66,98.160 89.144,97.316 90.170,96.440 C90.418,96.228 90.789,96.260 90.998,96.509 C91.207,96.758 91.176,97.131 90.929,97.343 C89.877,98.241 88.772,99.106 87.645,99.911 C87.542,99.985 87.424,100.20 87.306,100.20 C87.122,100.20 86.941,99.934 86.827,99.771 C86.640,99.504 86.702,99.134 86.966,98.946 ZM89.936,111.562 C91.95,110.870 92.247,110.127 93.358,109.353 C93.625,109.166 93.991,109.235 94.175,109.504 C94.359,109.773 94.292,110.142 94.26,110.327 C92.891,111.116 91.717,111.874 90.534,112.581 C90.440,112.636 90.337,112.663 90.236,112.663 C90.35,112.663 89.840,112.559 89.730,112.373 C89.565,112.92 89.657,111.729 89.936,111.562 ZM96.706,90.565 C96.955,90.774 96.988,91.147 96.780,91.398 C95.895,92.468 94.954,93.511 93.982,94.498 C93.867,94.614 93.716,94.673 93.565,94.673 C93.416,94.673 93.266,94.615 93.152,94.501 C92.922,94.271 92.920,93.896 93.149,93.664 C94.97,92.701 95.15,91.683 95.879,90.640 C96.86,90.389 96.456,90.354 96.706,90.565 ZM94.662,68.125 C94.978,68.200 95.174,68.518 95.100,68.836 C94.783,70.198 94.382,71.556 93.909,72.872 C93.823,73.112 93.597,73.262 93.357,73.262 C93.291,73.262 93.223,73.250 93.157,73.226 C92.852,73.115 92.695,72.776 92.805,72.468 C93.263,71.196 93.650,69.882 93.957,68.566 C94.31,68.247 94.347,68.51 94.662,68.125 ZM90.932,42.970 C91.215,42.814 91.572,42.921 91.727,43.208 C92.387,44.439 92.983,45.720 93.496,47.17 C93.616,47.320 93.470,47.665 93.169,47.786 C93.97,47.815 93.24,47.828 92.951,47.828 C92.718,47.828 92.497,47.687 92.406,47.455 C91.909,46.201 91.333,44.962 90.694,43.772 C90.540,43.485 90.646,43.125 90.932,42.970 ZM92.0,75.945 C92.290,76.92 92.407,76.447 92.262,76.740 C91.642,77.990 90.941,79.217 90.182,80.387 C90.69,80.561 89.881,80.655 89.690,80.655 C89.580,80.655 89.468,80.624 89.369,80.559 C89.98,80.380 89.22,80.13 89.199,79.739 C89.935,78.607 90.612,77.420 91.212,76.209 C91.357,75.917 91.710,75.799 92.0,75.945 ZM87.623,82.935 C87.871,83.145 87.905,83.517 87.697,83.769 C86.809,84.843 85.849,85.876 84.844,86.839 C84.731,86.948 84.585,87.2 84.440,87.2 C84.285,87.2 84.130,86.941 84.14,86.818 C83.791,86.581 83.800,86.207 84.35,85.981 C85.7,85.50 85.936,84.50 86.796,83.11 C87.2,82.760 87.373,82.726 87.623,82.935 ZM86.943,36.333 C87.864,37.377 88.735,38.486 89.532,39.632 C89.718,39.899 89.654,40.269 89.389,40.456 C89.286,40.529 89.168,40.563 89.52,40.563 C88.867,40.563 88.685,40.476 88.571,40.311 C87.800,39.204 86.957,38.130 86.66,37.120 C85.850,36.876 85.872,36.502 86.114,36.285 C86.355,36.68 86.727,36.88 86.943,36.333 ZM95.431,58.745 C95.743,58.725 96.26,58.991 96.36,59.318 C96.48,59.708 96.55,60.100 96.54,60.493 C96.54,61.891 95.974,63.305 95.816,64.691 C95.782,64.993 95.528,65.216 95.234,65.216 C95.211,65.216 95.189,65.214 95.166,65.212 C94.845,65.175 94.613,64.881 94.650,64.557 C94.803,63.214 94.880,61.847 94.880,60.493 C94.881,60.112 94.874,59.732 94.863,59.355 C94.853,59.28 95.107,58.755 95.431,58.745 ZM99.714,104.249 C99.953,104.28 100.324,104.45 100.543,104.285 C100.762,104.527 100.746,104.901 100.507,105.122 C99.488,106.62 98.427,106.975 97.354,107.838 C97.246,107.924 97.117,107.966 96.989,107.966 C96.816,107.966 96.645,107.890 96.529,107.743 C96.327,107.487 96.369,107.115 96.623,106.911 C97.675,106.67 98.715,105.171 99.714,104.249 ZM98.821,88.320 C98.705,88.320 98.588,88.285 98.485,88.213 C98.220,88.26 98.155,87.657 98.340,87.389 C99.110,86.275 99.841,85.114 100.513,83.936 C100.675,83.652 101.33,83.555 101.315,83.718 C101.595,83.881 101.692,84.243 101.531,84.526 C100.842,85.733 100.92,86.924 99.303,88.66 C99.189,88.231 99.6,88.320 98.821,88.320 ZM99.941,34.945 C100.216,34.775 100.578,34.859 100.749,35.138 C101.476,36.324 102.159,37.554 102.779,38.794 C102.925,39.86 102.808,39.442 102.519,39.589 C102.434,39.632 102.344,39.652 102.255,39.652 C102.40,39.652 101.833,39.533 101.730,39.327 C101.126,38.117 100.460,36.917 99.750,35.760 C99.580,35.482 99.665,35.117 99.941,34.945 ZM103.926,76.524 C104.37,76.217 104.374,76.58 104.678,76.169 C104.982,76.281 105.140,76.620 105.30,76.927 C104.559,78.238 104.26,79.542 103.445,80.804 C103.345,81.20 103.133,81.146 102.911,81.146 C102.829,81.146 102.745,81.129 102.665,81.91 C102.371,80.953 102.243,80.602 102.380,80.305 C102.946,79.75 103.467,77.803 103.926,76.524 ZM105.318,98.312 C105.525,98.61 105.895,98.25 106.144,98.234 C106.394,98.443 106.428,98.815 106.221,99.67 C105.343,100.136 104.416,101.189 103.467,102.194 C103.352,102.316 103.197,102.378 103.42,102.378 C102.897,102.378 102.751,102.324 102.638,102.215 C102.402,101.989 102.393,101.615 102.617,101.378 C103.547,100.393 104.456,99.361 105.318,98.312 ZM104.730,46.912 C104.342,45.611 103.893,44.312 103.395,43.52 C103.274,42.749 103.421,42.405 103.723,42.284 C104.21,42.162 104.364,42.310 104.485,42.614 C104.996,43.906 105.457,45.237 105.855,46.571 C105.947,46.884 105.772,47.215 105.461,47.308 C105.405,47.325 105.348,47.333 105.292,47.333 C105.40,47.333 104.807,47.168 104.730,46.912 ZM106.686,68.149 C107.6,68.206 107.219,68.513 107.164,68.834 C106.926,70.209 106.626,71.586 106.273,72.927 C106.203,73.192 105.965,73.367 105.706,73.367 C105.656,73.367 105.605,73.361 105.554,73.347 C105.241,73.263 105.55,72.939 105.138,72.623 C105.483,71.316 105.775,69.973 106.7,68.631 C106.63,68.309 106.361,68.96 106.686,68.149 ZM110.62,91.654 C110.233,91.376 110.594,91.291 110.870,91.462 C111.146,91.634 111.231,91.999 111.60,92.277 C110.339,93.453 109.564,94.624 108.757,95.756 C108.643,95.918 108.463,96.3 108.280,96.3 C108.161,96.3 108.42,95.967 107.938,95.892 C107.675,95.702 107.614,95.332 107.804,95.66 C108.595,93.955 109.355,92.808 110.62,91.654 ZM117.577,72.704 C117.854,71.371 118.87,70.13 118.271,68.666 C118.315,68.343 118.602,68.116 118.933,68.161 C119.254,68.206 119.478,68.504 119.434,68.828 C119.246,70.201 119.8,71.587 118.726,72.946 C118.668,73.226 118.424,73.417 118.152,73.417 C118.113,73.417 118.72,73.413 118.31,73.405 C117.714,73.338 117.511,73.25 117.577,72.704 Z"/>
</svg>