<svg 
 xmlns="http://www.w3.org/2000/svg"
 xmlns:xlink="http://www.w3.org/1999/xlink"
 width="1922px" height="745px">
<path fill-rule="evenodd"  fill="rgb(237, 237, 237)"
 d="M1915.753,744.985 L1913.544,744.985 L1922.0,736.985 L1922.0,739.74 L1915.753,744.985 ZM1877.987,744.985 L1922.0,703.343 L1922.0,705.432 L1880.192,744.985 L1877.987,744.985 ZM1842.427,744.985 L1922.0,669.702 L1922.0,671.790 L1844.635,744.985 L1842.427,744.985 ZM1892.889,663.581 L1922.0,636.59 L1922.0,638.148 L1886.808,671.445 L1892.889,663.581 ZM1909.104,601.192 L1922.0,588.990 L1922.0,591.79 L1910.36,602.397 L1909.104,601.192 ZM1894.81,581.764 L1922.0,555.347 L1922.0,557.437 L1895.13,582.970 L1894.81,581.764 ZM1879.56,562.336 L1922.0,521.705 L1922.0,523.795 L1879.988,563.542 L1879.56,562.336 ZM1863.702,546.982 L1827.129,512.382 L1790.554,546.987 L1791.305,546.16 L1789.633,544.433 L1791.448,545.831 L1796.639,539.120 L1827.129,510.295 L1857.762,539.277 L1862.22,544.810 L1922.0,488.65 L1922.0,490.153 L1862.953,546.16 L1863.702,546.982 ZM1849.8,523.481 L1922.0,454.423 L1922.0,456.512 L1849.939,524.686 L1849.8,523.481 ZM1833.985,504.53 L1922.0,420.781 L1922.0,422.870 L1834.917,505.259 L1833.985,504.53 ZM1892.889,414.659 L1922.0,387.139 L1922.0,389.228 L1886.814,422.518 L1892.889,414.659 ZM1909.104,352.270 L1922.0,340.70 L1922.0,342.159 L1910.36,353.477 L1909.104,352.270 ZM1894.81,332.843 L1922.0,306.428 L1922.0,308.517 L1895.13,334.49 L1894.81,332.843 ZM1879.56,313.416 L1922.0,272.786 L1922.0,274.875 L1879.988,314.620 L1879.56,313.416 ZM1863.702,298.63 L1827.129,263.464 L1790.554,298.67 L1791.305,297.96 L1789.630,295.511 L1791.448,296.912 L1796.639,290.200 L1827.129,261.375 L1857.762,290.357 L1862.22,295.891 L1922.0,239.144 L1922.0,241.233 L1862.953,297.96 L1863.702,298.63 ZM1849.8,274.561 L1922.0,205.503 L1922.0,207.591 L1849.939,275.766 L1849.8,274.561 ZM1833.985,255.133 L1922.0,171.861 L1922.0,173.950 L1834.917,256.339 L1833.985,255.133 ZM1892.889,165.740 L1922.0,138.218 L1922.0,140.308 L1886.808,173.605 L1892.889,165.740 ZM1909.104,103.351 L1922.0,91.150 L1922.0,93.239 L1910.36,104.556 L1909.104,103.351 ZM1894.81,83.924 L1922.0,57.506 L1922.0,59.597 L1895.13,85.129 L1894.81,83.924 ZM1879.56,64.495 L1922.0,23.865 L1922.0,25.955 L1879.988,65.702 L1879.56,64.495 ZM1863.702,49.143 L1827.129,14.542 L1790.554,49.147 L1791.305,48.176 L1789.630,46.592 L1791.448,47.991 L1796.639,41.280 L1827.129,12.455 L1857.762,41.437 L1862.22,46.970 L1910.636,0.976 L1912.842,0.976 L1862.953,48.176 L1863.702,49.143 ZM1849.8,25.641 L1875.76,0.976 L1877.284,0.976 L1849.939,26.846 L1849.8,25.641 ZM1833.985,6.213 L1839.519,0.976 L1841.727,0.976 L1834.917,7.419 L1833.985,6.213 ZM1812.535,0.976 L1814.740,0.976 L1820.274,6.213 L1819.345,7.417 L1812.535,0.976 ZM1776.974,0.976 L1779.183,0.976 L1805.251,25.641 L1804.319,26.846 L1776.974,0.976 ZM1789.294,46.273 L1741.417,0.976 L1743.625,0.976 L1790.225,45.68 L1789.294,46.273 ZM1774.271,65.702 L1730.894,24.661 L1687.516,65.702 L1686.582,64.494 L1730.810,22.653 L1730.883,22.738 L1730.969,22.644 L1775.203,64.495 L1774.271,65.702 ZM1671.228,49.143 L1634.655,14.542 L1598.91,49.137 L1598.834,48.176 L1597.170,46.603 L1598.974,47.991 L1604.166,41.280 L1634.655,12.455 L1665.291,41.437 L1669.548,46.970 L1718.162,0.976 L1720.368,0.976 L1670.480,48.176 L1671.228,49.143 ZM1656.534,25.641 L1682.605,0.976 L1684.810,0.976 L1657.466,26.846 L1656.534,25.641 ZM1641.511,6.213 L1647.45,0.976 L1649.253,0.976 L1642.443,7.419 L1641.511,6.213 ZM1620.61,0.976 L1622.266,0.976 L1627.802,6.213 L1626.871,7.419 L1620.61,0.976 ZM1584.503,0.976 L1586.709,0.976 L1612.777,25.641 L1611.845,26.846 L1584.503,0.976 ZM1596.822,46.273 L1548.946,0.976 L1551.151,0.976 L1597.751,45.68 L1596.822,46.273 ZM1581.797,65.702 L1538.420,24.661 L1495.43,65.702 L1494.111,64.495 L1538.336,22.653 L1538.409,22.737 L1538.492,22.642 L1582.729,64.495 L1581.797,65.702 ZM1478.754,49.143 L1442.181,14.542 L1405.617,49.137 L1406.360,48.176 L1356.472,0.976 L1358.677,0.976 L1407.292,46.970 L1411.692,41.280 L1442.181,12.455 L1472.817,41.437 L1477.74,46.970 L1525.689,0.976 L1527.897,0.976 L1478.6,48.176 L1478.754,49.143 ZM1464.63,25.641 L1490.131,0.976 L1492.336,0.976 L1464.992,26.844 L1464.63,25.641 ZM1449.37,6.213 L1454.574,0.976 L1456.779,0.976 L1449.969,7.419 L1449.37,6.213 ZM1427.587,0.976 L1429.792,0.976 L1435.329,6.213 L1434.397,7.419 L1427.587,0.976 ZM1392.29,0.976 L1394.235,0.976 L1420.303,25.641 L1419.372,26.846 L1392.29,0.976 ZM1389.323,65.702 L1345.946,24.661 L1302.569,65.702 L1301.637,64.495 L1345.863,22.653 L1345.935,22.737 L1346.19,22.642 L1390.255,64.495 L1389.323,65.702 ZM1286.272,49.133 L1249.710,14.542 L1213.135,49.147 L1213.886,48.176 L1163.998,0.976 L1166.203,0.976 L1214.818,46.970 L1219.218,41.280 L1249.710,12.455 L1280.343,41.437 L1284.600,46.970 L1333.215,0.976 L1335.423,0.976 L1285.532,48.176 L1286.272,49.133 ZM1271.589,25.641 L1297.657,0.976 L1299.863,0.976 L1272.520,26.846 L1271.589,25.641 ZM1256.563,6.213 L1262.100,0.976 L1264.305,0.976 L1257.495,7.419 L1256.563,6.213 ZM1235.113,0.976 L1237.318,0.976 L1242.855,6.213 L1241.923,7.419 L1235.113,0.976 ZM1199.555,0.976 L1201.761,0.976 L1227.829,25.641 L1226.897,26.846 L1199.555,0.976 ZM1196.849,65.702 L1153.472,24.661 L1110.95,65.702 L1109.163,64.495 L1153.472,22.573 L1197.781,64.495 L1196.849,65.702 ZM1093.809,49.143 L1057.237,14.542 L1020.661,49.147 L1021.412,48.176 L1019.738,46.591 L1021.555,47.990 L1026.744,41.278 L1057.237,12.455 L1087.869,41.437 L1092.126,46.970 L1140.741,0.976 L1142.949,0.976 L1093.61,48.176 L1093.809,49.143 ZM1079.115,25.641 L1105.183,0.976 L1107.391,0.976 L1080.47,26.846 L1079.115,25.641 ZM1064.89,6.212 L1069.626,0.976 L1071.834,0.976 L1065.24,7.419 L1064.89,6.212 ZM1042.639,0.976 L1044.847,0.976 L1050.381,6.213 L1049.449,7.419 L1042.639,0.976 ZM1007.82,0.976 L1009.287,0.976 L1035.355,25.641 L1034.424,26.846 L1007.82,0.976 ZM1019.401,46.273 L971.524,0.976 L973.729,0.976 L1020.333,45.68 L1019.401,46.273 ZM1004.378,65.700 L960.998,24.661 L917.621,65.702 L916.689,64.495 L960.998,22.573 L1005.307,64.495 L1004.378,65.700 ZM901.335,49.143 L864.763,14.542 L828.187,49.147 L828.939,48.176 L827.264,46.591 L829.81,47.990 L834.270,41.278 L864.763,12.455 L895.395,41.437 L899.655,46.970 L948.270,0.976 L950.475,0.976 L900.587,48.176 L901.335,49.143 ZM886.641,25.641 L912.709,0.976 L914.917,0.976 L887.573,26.846 L886.641,25.641 ZM871.618,6.213 L877.152,0.976 L879.360,0.976 L872.550,7.419 L871.618,6.213 ZM850.165,0.976 L852.373,0.976 L857.907,6.213 L856.975,7.419 L850.165,0.976 ZM814.608,0.976 L816.813,0.976 L842.881,25.641 L841.952,26.844 L814.608,0.976 ZM826.927,46.273 L779.50,0.976 L781.256,0.976 L827.859,45.68 L826.927,46.273 ZM811.904,65.702 L768.527,24.661 L725.147,65.702 L724.216,64.495 L768.524,22.573 L812.836,64.495 L811.904,65.702 ZM708.861,49.143 L672.289,14.542 L635.713,49.147 L636.465,48.176 L634.790,46.591 L636.607,47.990 L641.796,41.278 L672.289,12.455 L702.921,41.437 L707.181,46.970 L755.796,0.976 L758.1,0.976 L708.113,48.176 L708.861,49.143 ZM694.167,25.641 L720.235,0.976 L722.444,0.976 L695.99,26.846 L694.167,25.641 ZM679.145,6.213 L684.678,0.976 L686.886,0.976 L680.76,7.419 L679.145,6.213 ZM657.691,0.976 L659.899,0.976 L665.433,6.213 L664.501,7.419 L657.691,0.976 ZM622.134,0.976 L624.339,0.976 L650.410,25.641 L649.479,26.846 L622.134,0.976 ZM634.453,46.273 L586.576,0.976 L588.785,0.976 L635.385,45.68 L634.453,46.273 ZM619.430,65.702 L576.53,24.661 L532.673,65.702 L531.742,64.495 L576.53,22.573 L620.362,64.495 L619.430,65.702 ZM516.388,49.143 L479.815,14.542 L443.239,49.147 L443.991,48.176 L442.316,46.592 L444.134,47.991 L449.325,41.280 L479.815,12.455 L510.447,41.437 L514.707,46.970 L563.322,0.976 L565.527,0.976 L515.639,48.176 L516.388,49.143 ZM501.693,25.641 L527.762,0.976 L529.970,0.976 L502.625,26.846 L501.693,25.641 ZM486.671,6.213 L492.204,0.976 L494.412,0.976 L487.602,7.419 L486.671,6.213 ZM465.220,0.976 L467.426,0.976 L472.959,6.213 L472.30,7.417 L465.220,0.976 ZM429.660,0.976 L431.868,0.976 L457.937,25.641 L457.5,26.846 L429.660,0.976 ZM441.979,46.273 L394.104,0.976 L396.309,0.976 L442.911,45.68 L441.979,46.273 ZM426.956,65.702 L383.579,24.661 L340.201,65.702 L339.269,64.495 L383.552,22.599 L383.625,22.671 L383.652,22.642 L427.888,64.495 L426.956,65.702 ZM323.910,49.137 L287.342,14.542 L250.770,49.143 L251.518,48.176 L249.846,46.594 L251.661,47.991 L256.853,41.280 L287.342,12.455 L317.973,41.437 L322.233,46.970 L370.848,0.976 L373.55,0.976 L323.165,48.176 L323.910,49.137 ZM309.221,25.641 L335.289,0.976 L337.496,0.976 L310.153,26.846 L309.221,25.641 ZM294.195,6.213 L299.732,0.976 L301.938,0.976 L295.128,7.419 L294.195,6.213 ZM272.747,0.976 L274.952,0.976 L280.487,6.213 L279.555,7.419 L272.747,0.976 ZM237.188,0.976 L239.394,0.976 L265.463,25.641 L264.531,26.846 L237.188,0.976 ZM249.507,46.273 L201.630,0.976 L203.837,0.976 L250.438,45.68 L249.507,46.273 ZM234.483,65.702 L191.106,24.661 L147.727,65.702 L146.795,64.495 L191.21,22.653 L191.37,22.671 L191.122,22.588 L235.414,64.495 L234.483,65.702 ZM131.436,49.137 L94.869,14.542 L58.298,49.141 L59.46,48.176 L57.376,46.597 L59.189,47.990 L64.379,41.278 L94.869,12.455 L125.500,41.437 L129.759,46.970 L178.374,0.976 L180.581,0.976 L130.691,48.176 L131.436,49.137 ZM116.747,25.641 L142.817,0.976 L145.22,0.976 L117.679,26.846 L116.747,25.641 ZM101.722,6.213 L107.258,0.976 L109.465,0.976 L102.656,7.419 L101.722,6.213 ZM80.272,0.976 L82.479,0.976 L88.14,6.213 L87.83,7.417 L80.272,0.976 ZM44.714,0.976 L46.920,0.976 L72.989,25.641 L72.57,26.846 L44.714,0.976 ZM57.34,46.273 L9.157,0.976 L11.363,0.976 L57.966,45.68 L57.34,46.273 ZM42.9,65.702 L0.0,25.955 L0.0,23.865 L42.940,64.495 L42.9,65.702 ZM26.986,85.129 L0.0,59.597 L0.0,57.506 L27.919,83.924 L26.986,85.129 ZM11.962,104.556 L0.0,93.239 L0.0,91.150 L12.895,103.350 L11.962,104.556 ZM30.749,167.859 L33.512,171.430 L94.869,113.380 L154.215,169.528 L153.473,170.487 L155.657,172.166 L160.628,165.740 L191.106,136.926 L221.727,165.897 L223.222,167.857 L225.986,171.430 L287.342,113.380 L348.698,171.430 L350.371,169.266 L353.100,165.740 L383.578,136.926 L414.200,165.897 L418.458,171.432 L479.815,113.380 L539.160,169.528 L538.387,170.528 L540.571,172.208 L545.574,165.740 L576.50,136.926 L606.675,165.897 L608.167,167.857 L610.932,171.430 L672.289,113.380 L733.645,171.430 L737.983,165.822 L768.524,136.926 L799.149,165.897 L800.643,167.857 L803.406,171.430 L864.763,113.380 L926.119,171.432 L928.852,167.895 L930.519,165.740 L960.998,136.926 L991.623,165.897 L993.117,167.857 L995.880,171.430 L1057.237,113.380 L1118.593,171.432 L1121.326,167.895 L1122.993,165.740 L1153.472,136.926 L1184.97,165.897 L1185.588,167.857 L1188.354,171.430 L1249.710,113.380 L1311.64,171.430 L1315.467,165.740 L1345.922,136.950 L1345.935,136.965 L1345.959,136.941 L1376.568,165.897 L1380.825,171.432 L1442.181,113.380 L1503.538,171.430 L1504.486,170.207 L1507.941,165.740 L1538.396,136.950 L1538.409,136.965 L1538.433,136.941 L1569.41,165.897 L1573.299,171.432 L1634.655,113.380 L1694.1,169.528 L1693.72,170.734 L1634.655,115.468 L1574.231,172.637 L1574.979,173.604 L1538.420,139.15 L1501.847,173.616 L1502.606,172.635 L1442.181,115.468 L1381.757,172.638 L1382.505,173.602 L1345.946,139.15 L1309.384,173.606 L1310.135,172.635 L1249.710,115.468 L1189.283,172.638 L1190.31,173.602 L1153.472,139.15 L1116.910,173.606 L1117.661,172.635 L1057.237,115.468 L996.811,172.637 L997.565,173.613 L960.998,139.15 L924.431,173.613 L925.188,172.635 L864.763,115.468 L804.338,172.637 L805.92,173.610 L768.527,139.15 L731.954,173.616 L732.714,172.635 L672.289,115.468 L611.864,172.637 L612.615,173.609 L576.53,139.15 L539.483,173.614 L540.240,172.635 L479.815,115.468 L419.390,172.637 L420.144,173.610 L383.579,139.15 L347.13,173.610 L347.767,172.635 L287.342,115.468 L226.916,172.637 L227.666,173.606 L191.106,139.15 L154.539,173.610 L155.294,172.635 L94.869,115.468 L34.445,172.637 L35.196,173.610 L0.0,140.308 L0.0,138.220 L29.253,165.897 L30.749,167.859 ZM87.83,256.338 L0.0,173.950 L0.0,171.861 L88.14,255.133 L87.83,256.338 ZM72.57,275.766 L0.0,207.591 L0.0,205.503 L72.989,274.561 L72.57,275.766 ZM57.34,295.194 L0.0,241.233 L0.0,239.144 L57.965,293.989 L57.34,295.194 ZM42.9,314.622 L0.0,274.875 L0.0,272.786 L42.940,313.416 L42.9,314.622 ZM26.986,334.49 L0.0,308.517 L0.0,306.428 L27.918,332.843 L26.986,334.49 ZM11.962,353.477 L0.0,342.159 L0.0,340.70 L12.895,352.270 L11.962,353.477 ZM30.749,416.779 L33.512,420.350 L94.869,362.300 L154.215,418.448 L153.283,419.653 L94.869,364.388 L34.443,421.557 L35.193,422.526 L0.0,389.228 L0.0,387.140 L29.253,414.818 L30.749,416.779 ZM87.83,505.258 L0.0,422.870 L0.0,420.781 L88.14,504.53 L87.83,505.258 ZM72.57,524.686 L0.0,456.512 L0.0,454.423 L72.989,523.481 L72.57,524.686 ZM57.34,544.114 L0.0,490.153 L0.0,488.65 L57.966,542.908 L57.34,544.114 ZM42.9,563.542 L0.0,523.795 L0.0,521.705 L42.940,562.336 L42.9,563.542 ZM26.986,582.970 L0.0,557.437 L0.0,555.347 L27.919,581.764 L26.986,582.970 ZM11.962,602.397 L0.0,591.79 L0.0,588.990 L12.895,601.191 L11.962,602.397 ZM30.749,665.699 L33.512,669.271 L94.869,611.220 L154.215,667.368 L153.473,668.327 L155.657,670.7 L160.628,663.581 L191.106,634.766 L221.727,663.738 L223.222,665.697 L225.986,669.271 L287.342,611.220 L348.698,669.271 L350.371,667.106 L353.100,663.581 L383.578,634.766 L414.200,663.738 L418.458,669.272 L479.815,611.220 L539.160,667.368 L538.387,668.368 L540.571,670.48 L545.574,663.581 L576.50,634.766 L606.675,663.738 L608.167,665.697 L610.932,669.271 L672.289,611.220 L733.645,669.271 L737.983,663.663 L768.524,634.766 L799.149,663.738 L800.643,665.697 L803.406,669.271 L864.763,611.220 L926.119,669.272 L928.852,665.735 L930.519,663.581 L960.998,634.766 L991.623,663.738 L993.117,665.697 L995.880,669.271 L1057.237,611.220 L1118.593,669.272 L1121.326,665.735 L1122.993,663.581 L1153.472,634.766 L1184.97,663.738 L1185.588,665.697 L1188.354,669.271 L1249.710,611.220 L1311.64,669.271 L1315.467,663.581 L1345.922,634.791 L1345.935,634.805 L1345.959,634.781 L1376.568,663.738 L1380.825,669.272 L1442.181,611.220 L1503.538,669.271 L1504.486,668.47 L1507.941,663.581 L1538.396,634.791 L1538.409,634.805 L1538.433,634.781 L1569.41,663.738 L1573.299,669.272 L1634.655,611.220 L1694.1,667.368 L1693.72,668.575 L1634.655,613.309 L1574.231,670.477 L1574.979,671.443 L1538.420,636.855 L1501.847,671.456 L1502.606,670.475 L1442.181,613.309 L1381.757,670.478 L1382.505,671.443 L1345.946,636.855 L1309.384,671.446 L1310.135,670.475 L1249.710,613.309 L1189.283,670.478 L1190.31,671.443 L1153.472,636.855 L1116.910,671.446 L1117.661,670.475 L1057.237,613.309 L996.811,670.477 L997.565,671.453 L960.998,636.855 L924.431,671.453 L925.188,670.475 L864.763,613.309 L804.338,670.477 L805.92,671.450 L768.527,636.855 L731.954,671.456 L732.714,670.475 L672.289,613.309 L611.864,670.477 L612.615,671.449 L576.53,636.855 L539.483,671.454 L540.240,670.475 L479.815,613.309 L419.390,670.477 L420.144,671.450 L383.579,636.855 L347.13,671.450 L347.767,670.475 L287.342,613.309 L226.916,670.477 L227.666,671.446 L191.106,636.855 L154.539,671.450 L155.294,670.475 L94.869,613.309 L34.445,670.477 L35.196,671.450 L0.0,638.148 L0.0,636.60 L29.253,663.738 L30.749,665.699 ZM77.363,744.985 L0.0,671.790 L0.0,669.702 L79.570,744.985 L77.363,744.985 ZM41.804,744.985 L0.0,705.432 L0.0,703.343 L44.12,744.985 L41.804,744.985 ZM6.247,744.985 L0.0,739.74 L0.0,736.985 L8.455,744.985 L6.247,744.985 ZM109.143,725.651 L108.211,726.856 L94.869,714.234 L81.526,726.858 L80.594,725.651 L94.869,712.145 L109.143,725.651 ZM124.167,706.223 L123.235,707.429 L94.869,680.592 L66.502,707.429 L65.570,706.223 L94.869,678.504 L124.167,706.223 ZM50.547,686.795 L94.869,644.862 L139.191,686.795 L138.259,688.1 L94.869,646.950 L51.479,688.1 L50.547,686.795 ZM272.44,744.985 L269.837,744.985 L191.106,670.497 L112.374,744.985 L110.167,744.985 L191.106,668.408 L272.44,744.985 ZM236.485,744.985 L234.278,744.985 L191.106,704.139 L147.933,744.985 L145.725,744.985 L191.106,702.50 L236.485,744.985 ZM200.927,744.985 L198.721,744.985 L191.106,737.781 L183.490,744.985 L181.284,744.985 L191.106,735.692 L200.927,744.985 ZM301.615,725.651 L300.684,726.858 L287.342,714.234 L274.0,726.858 L273.68,725.651 L287.342,712.145 L301.615,725.651 ZM316.641,706.223 L315.709,707.428 L287.342,680.592 L258.976,707.429 L258.44,706.223 L287.342,678.504 L316.641,706.223 ZM243.20,686.795 L287.342,644.862 L331.665,686.795 L330.732,688.1 L287.342,646.950 L243.952,688.1 L243.20,686.795 ZM464.517,744.985 L462.309,744.985 L383.579,670.497 L304.848,744.985 L302.640,744.985 L383.579,668.408 L464.517,744.985 ZM428.957,744.985 L426.752,744.985 L383.579,704.139 L340.406,744.985 L338.199,744.985 L383.578,702.50 L428.957,744.985 ZM393.401,744.985 L391.194,744.985 L383.579,737.781 L375.964,744.985 L373.758,744.985 L383.579,735.692 L393.401,744.985 ZM494.89,725.651 L493.157,726.858 L479.815,714.234 L466.472,726.858 L465.541,725.651 L479.815,712.145 L494.89,725.651 ZM509.112,706.223 L508.183,707.428 L479.815,680.592 L451.450,707.429 L450.518,706.223 L479.815,678.504 L509.112,706.223 ZM435.492,686.795 L479.815,644.862 L524.137,686.795 L523.206,688.1 L479.815,646.950 L436.424,688.1 L435.492,686.795 ZM656.991,744.985 L654.783,744.985 L576.53,670.497 L497.320,744.985 L495.112,744.985 L576.53,668.408 L656.991,744.985 ZM621.431,744.985 L619.226,744.985 L576.53,704.139 L532.878,744.985 L530.673,744.985 L576.53,702.50 L621.431,744.985 ZM585.873,744.985 L583.668,744.985 L576.53,737.781 L568.438,744.985 L566.230,744.985 L576.53,735.692 L585.873,744.985 ZM686.563,725.651 L685.631,726.858 L672.289,714.234 L658.946,726.858 L658.15,725.651 L672.289,712.145 L686.563,725.651 ZM701.586,706.223 L700.654,707.429 L672.289,680.592 L643.923,707.429 L642.992,706.223 L672.289,678.504 L701.586,706.223 ZM627.966,686.795 L672.289,644.862 L716.611,686.795 L715.679,688.1 L672.289,646.950 L628.898,688.1 L627.966,686.795 ZM849.465,744.985 L847.257,744.985 L768.527,670.497 L689.794,744.985 L687.586,744.985 L768.524,668.408 L849.465,744.985 ZM813.905,744.985 L811.700,744.985 L768.527,704.139 L725.352,744.985 L723.146,744.985 L768.524,702.50 L813.905,744.985 ZM778.347,744.985 L776.139,744.985 L768.527,737.781 L760.912,744.985 L758.704,744.985 L768.524,735.692 L778.347,744.985 ZM879.37,725.651 L878.105,726.858 L864.763,714.234 L851.420,726.858 L850.488,725.651 L864.763,712.145 L879.37,725.651 ZM894.60,706.223 L893.128,707.429 L864.763,680.592 L836.397,707.429 L835.466,706.223 L864.763,678.504 L894.60,706.223 ZM820.440,686.795 L864.763,644.862 L909.85,686.795 L908.153,688.1 L864.763,646.950 L821.372,688.1 L820.440,686.795 ZM1041.936,744.985 L1039.731,744.985 L960.998,670.497 L882.268,744.985 L880.60,744.985 L960.998,668.408 L1041.936,744.985 ZM1006.379,744.985 L1004.171,744.985 L960.998,704.139 L917.826,744.985 L915.617,744.985 L960.998,702.50 L1006.379,744.985 ZM970.821,744.985 L968.613,744.985 L961.1,737.781 L953.386,744.985 L951.178,744.985 L961.1,735.692 L970.821,744.985 ZM1071.511,725.651 L1070.579,726.858 L1057.237,714.234 L1043.894,726.858 L1042.962,725.651 L1057.237,712.145 L1071.511,725.651 ZM1086.534,706.223 L1085.602,707.429 L1057.237,680.592 L1028.871,707.429 L1027.937,706.222 L1057.237,678.504 L1086.534,706.223 ZM1012.914,686.795 L1057.237,644.862 L1101.559,686.796 L1100.627,688.1 L1057.237,646.950 L1013.846,688.1 L1012.914,686.795 ZM1234.410,744.985 L1232.205,744.985 L1153.472,670.497 L1074.742,744.985 L1072.534,744.985 L1153.472,668.408 L1234.410,744.985 ZM1198.853,744.985 L1196.645,744.985 L1153.472,704.139 L1110.299,744.985 L1108.91,744.985 L1153.472,702.50 L1198.853,744.985 ZM1163.295,744.985 L1161.87,744.985 L1153.472,737.781 L1145.857,744.985 L1143.652,744.985 L1153.472,735.692 L1163.295,744.985 ZM1263.982,725.651 L1263.53,726.856 L1249.710,714.234 L1236.368,726.858 L1235.436,725.651 L1249.710,712.145 L1263.982,725.651 ZM1279.7,706.223 L1278.76,707.429 L1249.710,680.592 L1221.342,707.429 L1220.411,706.223 L1249.710,678.504 L1279.7,706.223 ZM1205.388,686.795 L1249.710,644.862 L1294.30,686.795 L1293.98,688.1 L1249.710,646.950 L1206.320,688.1 L1205.388,686.795 ZM1345.935,668.447 L1345.959,668.423 L1426.884,744.985 L1424.679,744.985 L1345.946,670.497 L1267.216,744.985 L1265.8,744.985 L1345.922,668.432 L1345.935,668.447 ZM1345.935,702.89 L1345.959,702.64 L1391.327,744.985 L1389.119,744.985 L1345.946,704.139 L1302.773,744.985 L1300.565,744.985 L1345.922,702.74 L1345.935,702.89 ZM1345.935,735.729 L1345.959,735.705 L1355.769,744.985 L1353.561,744.985 L1345.946,737.781 L1338.331,744.985 L1336.125,744.985 L1345.922,735.716 L1345.935,735.729 ZM1456.456,725.651 L1455.524,726.858 L1442.181,714.234 L1428.839,726.856 L1427.910,725.651 L1442.181,712.145 L1456.456,725.651 ZM1471.481,706.223 L1470.550,707.429 L1442.181,680.592 L1413.816,707.429 L1412.885,706.223 L1442.181,678.504 L1471.481,706.223 ZM1397.862,686.795 L1442.181,644.862 L1486.504,686.795 L1485.572,688.1 L1442.181,646.950 L1398.794,688.1 L1397.862,686.795 ZM1538.409,668.447 L1538.433,668.423 L1619.358,744.985 L1617.150,744.985 L1538.420,670.497 L1459.687,744.985 L1457.482,744.985 L1538.396,668.432 L1538.409,668.447 ZM1538.409,702.89 L1538.433,702.64 L1583.801,744.985 L1581.592,744.985 L1538.420,704.139 L1495.247,744.985 L1493.39,744.985 L1538.396,702.74 L1538.409,702.89 ZM1538.409,735.728 L1538.433,735.705 L1548.243,744.985 L1546.35,744.985 L1538.420,737.781 L1530.805,744.985 L1528.597,744.985 L1538.396,735.716 L1538.409,735.728 ZM1648.930,725.651 L1647.998,726.858 L1634.655,714.234 L1621.313,726.858 L1620.381,725.651 L1634.655,712.145 L1648.930,725.651 ZM1663.955,706.223 L1663.23,707.429 L1634.655,680.592 L1606.290,707.429 L1605.358,706.223 L1634.655,678.504 L1663.955,706.223 ZM1590.336,686.795 L1634.655,644.862 L1678.978,686.795 L1678.46,688.1 L1634.655,646.950 L1591.268,688.1 L1590.336,686.795 ZM1730.883,668.447 L1730.907,668.423 L1811.832,744.985 L1809.624,744.985 L1730.894,670.497 L1652.161,744.985 L1649.956,744.985 L1730.870,668.432 L1730.883,668.447 ZM1730.883,702.90 L1730.910,702.66 L1776.272,744.985 L1774.66,744.985 L1730.894,704.139 L1687.721,744.985 L1685.513,744.985 L1730.870,702.74 L1730.883,702.90 ZM1730.883,735.729 L1730.907,735.706 L1740.714,744.985 L1738.509,744.985 L1730.894,737.781 L1723.279,744.985 L1721.71,744.985 L1730.870,735.716 L1730.883,735.729 ZM1827.129,680.592 L1798.764,707.429 L1797.832,706.223 L1827.129,678.504 L1856.426,706.223 L1855.497,707.428 L1827.129,680.592 ZM1827.129,646.950 L1783.739,688.1 L1782.807,686.795 L1827.129,644.862 L1871.452,686.795 L1870.520,688.1 L1827.129,646.950 ZM1827.129,613.309 L1766.704,670.477 L1767.458,671.450 L1730.894,636.855 L1694.324,671.454 L1696.912,668.111 L1700.415,663.581 L1730.870,634.791 L1730.883,634.805 L1730.907,634.781 L1761.515,663.738 L1765.773,669.272 L1827.129,611.220 L1886.474,667.368 L1885.543,668.573 L1827.129,613.309 ZM1827.129,579.667 L1753.693,649.147 L1752.761,647.940 L1827.129,577.578 L1901.500,647.940 L1900.568,649.147 L1827.129,579.667 ZM1916.523,628.512 L1915.591,629.719 L1827.129,546.26 L1738.668,629.719 L1737.736,628.512 L1827.129,543.937 L1916.523,628.512 ZM1730.894,488.860 L1670.480,546.16 L1671.228,546.983 L1634.655,512.382 L1598.91,546.978 L1598.834,546.16 L1597.173,544.444 L1598.974,545.831 L1604.166,539.120 L1634.655,510.295 L1665.291,539.277 L1669.548,544.810 L1730.870,486.796 L1730.883,486.810 L1730.907,486.786 L1790.225,542.908 L1789.294,544.114 L1730.894,488.860 ZM1730.894,455.219 L1657.466,524.686 L1656.534,523.481 L1730.870,453.154 L1730.883,453.170 L1730.910,453.146 L1805.251,523.481 L1804.319,524.686 L1730.894,455.219 ZM1730.894,421.577 L1642.443,505.259 L1641.511,504.53 L1730.870,419.512 L1730.883,419.528 L1730.910,419.504 L1820.274,504.53 L1819.345,505.258 L1730.894,421.577 ZM1827.129,465.314 L1813.787,477.937 L1812.855,476.731 L1827.129,463.225 L1841.403,476.731 L1840.472,477.937 L1827.129,465.314 ZM1827.129,431.672 L1798.764,458.509 L1797.832,457.303 L1827.129,429.584 L1856.426,457.303 L1855.497,458.508 L1827.129,431.672 ZM1827.129,398.30 L1783.739,439.81 L1782.807,437.875 L1827.129,395.942 L1871.452,437.875 L1870.520,439.81 L1827.129,398.30 ZM1827.129,364.388 L1766.704,421.557 L1767.455,422.526 L1730.894,387.935 L1694.340,422.518 L1700.415,414.659 L1730.870,385.870 L1730.883,385.885 L1730.907,385.861 L1761.515,414.818 L1765.773,420.352 L1827.129,362.300 L1886.474,418.448 L1885.543,419.653 L1827.129,364.388 ZM1827.129,330.747 L1753.693,400.227 L1752.761,399.20 L1827.129,328.659 L1901.500,399.20 L1900.568,400.227 L1827.129,330.747 ZM1916.523,379.593 L1915.591,380.799 L1827.129,297.105 L1738.668,380.799 L1737.736,379.593 L1827.129,295.17 L1916.523,379.593 ZM1730.894,239.940 L1670.480,297.96 L1671.228,298.63 L1634.655,263.464 L1598.88,298.59 L1598.834,297.96 L1597.170,295.523 L1598.974,296.912 L1604.166,290.200 L1634.655,261.375 L1665.291,290.357 L1669.548,295.891 L1730.870,237.875 L1730.883,237.890 L1730.907,237.866 L1790.225,293.989 L1789.294,295.194 L1730.894,239.940 ZM1730.894,206.298 L1657.466,275.766 L1656.534,274.561 L1730.870,204.234 L1730.883,204.250 L1730.910,204.226 L1805.251,274.561 L1804.319,275.766 L1730.894,206.298 ZM1678.978,188.955 L1678.46,190.161 L1634.655,149.110 L1591.268,190.161 L1590.336,188.955 L1634.655,147.22 L1678.978,188.955 ZM1606.290,209.589 L1605.358,208.382 L1634.655,180.664 L1663.955,208.382 L1663.23,209.589 L1634.655,182.752 L1606.290,209.589 ZM1634.655,216.394 L1621.313,229.17 L1620.381,227.811 L1634.655,214.305 L1648.930,227.811 L1647.998,229.17 L1634.655,216.394 ZM1538.409,170.607 L1538.433,170.583 L1627.802,255.133 L1626.871,256.339 L1538.420,172.657 L1449.969,256.339 L1449.37,255.133 L1538.396,170.592 L1538.409,170.607 ZM1486.504,188.955 L1485.572,190.161 L1442.181,149.110 L1398.794,190.161 L1397.862,188.955 L1442.181,147.22 L1486.504,188.955 ZM1345.935,170.607 L1345.959,170.583 L1435.329,255.133 L1434.397,256.339 L1345.946,172.657 L1257.495,256.339 L1256.563,255.133 L1345.922,170.592 L1345.935,170.607 ZM1294.30,188.955 L1293.98,190.161 L1249.710,149.110 L1206.320,190.161 L1205.388,188.955 L1249.710,147.22 L1294.30,188.955 ZM1242.855,255.133 L1241.923,256.339 L1153.472,172.657 L1065.24,256.339 L1064.89,255.132 L1153.472,170.568 L1242.855,255.133 ZM1101.559,188.956 L1100.627,190.161 L1057.237,149.110 L1013.846,190.161 L1012.914,188.955 L1057.237,147.22 L1101.559,188.956 ZM1050.381,255.133 L1049.449,256.339 L960.998,172.657 L872.550,256.339 L871.618,255.133 L960.998,170.568 L1050.381,255.133 ZM909.85,188.955 L908.153,190.161 L864.763,149.110 L821.372,190.161 L820.440,188.955 L864.763,147.22 L909.85,188.955 ZM857.907,255.133 L856.975,256.339 L768.527,172.657 L680.76,256.339 L679.145,255.133 L768.524,170.568 L857.907,255.133 ZM716.611,188.955 L715.679,190.161 L672.289,149.110 L628.898,190.161 L627.966,188.955 L672.289,147.22 L716.611,188.955 ZM665.433,255.133 L664.501,256.339 L576.53,172.657 L487.602,256.339 L486.671,255.133 L576.53,170.568 L665.433,255.133 ZM524.137,188.955 L523.206,190.161 L479.815,149.110 L436.424,190.161 L435.492,188.955 L479.815,147.22 L524.137,188.955 ZM472.959,255.133 L472.30,256.338 L383.579,172.657 L295.128,256.339 L294.197,255.133 L383.578,170.568 L472.959,255.133 ZM331.665,188.955 L330.732,190.161 L287.342,149.110 L243.952,190.161 L243.20,188.955 L287.342,147.22 L331.665,188.955 ZM280.487,255.133 L279.555,256.339 L191.106,172.657 L102.656,256.339 L101.723,255.133 L191.106,170.568 L280.487,255.133 ZM50.547,188.955 L94.869,147.22 L139.191,188.955 L138.259,190.161 L94.869,149.110 L51.479,190.161 L50.547,188.955 ZM65.570,208.382 L94.869,180.664 L124.167,208.382 L123.235,209.589 L94.869,182.752 L66.502,209.589 L65.570,208.382 ZM80.594,227.811 L94.869,214.305 L109.143,227.811 L108.211,229.16 L94.869,216.394 L81.526,229.17 L80.594,227.811 ZM117.679,275.766 L116.747,274.561 L191.106,204.210 L265.463,274.561 L264.531,275.766 L191.106,206.298 L117.679,275.766 ZM258.976,209.589 L258.44,208.382 L287.342,180.664 L316.641,208.382 L315.709,209.588 L287.342,182.752 L258.976,209.589 ZM287.342,216.394 L274.0,229.17 L273.68,227.811 L287.342,214.305 L301.615,227.811 L300.684,229.17 L287.342,216.394 ZM59.189,296.912 L64.379,290.200 L94.869,261.375 L125.500,290.357 L129.759,295.891 L191.106,237.851 L252.450,295.891 L256.853,290.200 L287.342,261.375 L317.973,290.357 L322.233,295.891 L383.579,237.851 L442.911,293.989 L441.979,295.194 L383.579,239.940 L323.165,297.96 L323.910,298.59 L287.342,263.464 L250.768,298.66 L251.518,297.96 L191.106,239.940 L130.691,297.96 L131.436,298.59 L94.869,263.464 L58.297,298.63 L59.46,297.96 L57.376,295.516 L59.189,296.912 ZM5.475,379.593 L94.869,295.17 L184.262,379.593 L183.329,380.799 L94.869,297.105 L6.407,380.799 L5.475,379.593 ZM21.431,400.227 L20.499,399.20 L94.869,328.659 L169.238,399.20 L168.306,400.227 L94.869,330.747 L21.431,400.227 ZM191.106,385.846 L221.727,414.818 L223.222,416.777 L225.986,420.350 L287.342,362.300 L346.688,418.448 L345.756,419.653 L287.342,364.388 L226.916,421.557 L227.664,422.524 L191.106,387.935 L154.552,422.518 L160.628,414.659 L191.106,385.846 ZM280.487,504.53 L279.555,505.259 L191.106,421.577 L102.656,505.259 L101.722,504.53 L191.106,419.488 L280.487,504.53 ZM50.547,437.875 L94.869,395.942 L139.191,437.875 L138.259,439.81 L94.869,398.30 L51.479,439.81 L50.547,437.875 ZM65.570,457.303 L94.869,429.584 L124.167,457.303 L123.235,458.509 L94.869,431.672 L66.502,458.509 L65.570,457.303 ZM80.594,476.731 L94.869,463.225 L109.143,476.731 L108.211,477.936 L94.869,465.314 L81.526,477.937 L80.594,476.731 ZM59.189,545.831 L64.379,539.120 L94.869,510.295 L125.500,539.277 L129.759,544.810 L191.106,486.772 L250.438,542.908 L249.507,544.114 L191.106,488.860 L130.691,546.16 L131.436,546.978 L94.869,512.382 L58.298,546.982 L59.46,546.16 L57.379,544.439 L59.189,545.831 ZM177.775,602.397 L176.843,601.192 L191.106,587.697 L205.367,601.191 L204.436,602.397 L191.106,589.785 L177.775,602.397 ZM191.120,554.68 L220.392,581.764 L219.459,582.970 L191.106,556.143 L162.751,582.970 L161.819,581.764 L191.22,554.134 L191.37,554.150 L191.120,554.68 ZM146.795,562.336 L191.21,520.494 L191.37,520.511 L191.122,520.428 L235.414,562.336 L234.483,563.542 L191.106,522.502 L147.727,563.542 L146.795,562.336 ZM370.248,602.397 L369.317,601.192 L383.579,587.697 L397.841,601.191 L396.910,602.397 L383.579,589.785 L370.248,602.397 ZM562.721,602.397 L561.790,601.192 L576.53,587.697 L590.314,601.191 L589.382,602.397 L576.53,589.785 L562.721,602.397 ZM755.195,602.397 L754.263,601.192 L768.527,587.697 L782.788,601.191 L781.856,602.397 L768.527,589.785 L755.195,602.397 ZM947.669,602.397 L946.738,601.192 L961.1,587.697 L975.262,601.191 L974.330,602.397 L960.998,589.785 L947.669,602.397 ZM1140.143,602.397 L1139.211,601.192 L1153.475,587.697 L1167.736,601.191 L1166.804,602.397 L1153.472,589.785 L1140.143,602.397 ZM1332.617,602.397 L1331.685,601.192 L1345.919,587.723 L1345.935,587.737 L1345.959,587.712 L1360.209,601.191 L1359.278,602.397 L1345.946,589.785 L1332.617,602.397 ZM1525.88,602.395 L1524.159,601.192 L1538.396,587.721 L1538.409,587.736 L1538.433,587.712 L1552.683,601.191 L1551.752,602.397 L1538.420,589.785 L1525.88,602.395 ZM1538.492,554.125 L1567.706,581.764 L1566.774,582.970 L1538.420,556.143 L1510.66,582.970 L1509.134,581.764 L1538.336,554.134 L1538.409,554.216 L1538.492,554.125 ZM1494.111,562.336 L1538.336,520.494 L1538.409,520.577 L1538.492,520.483 L1582.729,562.336 L1581.797,563.542 L1538.420,522.502 L1495.43,563.542 L1494.111,562.336 ZM1346.19,554.125 L1375.232,581.764 L1374.301,582.970 L1345.946,556.143 L1317.591,582.970 L1316.660,581.764 L1345.863,554.134 L1345.935,554.216 L1346.19,554.125 ZM1301.637,562.336 L1345.863,520.494 L1345.935,520.577 L1346.19,520.483 L1390.255,562.336 L1389.323,563.542 L1345.946,522.502 L1302.569,563.542 L1301.637,562.336 ZM1182.758,581.764 L1181.826,582.970 L1153.472,556.143 L1125.118,582.970 L1124.186,581.764 L1153.472,554.55 L1182.758,581.764 ZM1109.163,562.336 L1153.472,520.413 L1197.781,562.336 L1196.849,563.542 L1153.472,522.502 L1110.95,563.542 L1109.163,562.336 ZM1538.420,488.860 L1478.6,546.16 L1478.754,546.983 L1442.181,512.382 L1405.617,546.978 L1406.360,546.16 L1345.946,488.860 L1285.532,546.16 L1286.272,546.974 L1249.710,512.382 L1213.135,546.987 L1213.886,546.16 L1153.472,488.860 L1093.61,546.16 L1093.809,546.983 L1057.237,512.382 L1020.661,546.987 L1021.412,546.16 L1019.738,544.433 L1021.555,545.831 L1026.744,539.118 L1057.237,510.295 L1087.869,539.277 L1092.126,544.810 L1153.472,486.772 L1214.818,544.810 L1219.218,539.120 L1249.710,510.295 L1280.343,539.277 L1284.600,544.810 L1345.922,486.796 L1345.935,486.810 L1345.959,486.786 L1407.292,544.810 L1411.692,539.120 L1442.181,510.295 L1472.817,539.277 L1477.74,544.810 L1538.396,486.796 L1538.409,486.810 L1538.433,486.786 L1597.751,542.908 L1596.822,544.113 L1538.420,488.860 ZM1538.420,455.219 L1464.992,524.684 L1464.63,523.481 L1538.396,453.154 L1538.409,453.169 L1538.433,453.144 L1612.777,523.481 L1611.845,524.686 L1538.420,455.219 ZM1538.420,421.577 L1449.969,505.259 L1449.37,504.53 L1538.396,419.512 L1538.409,419.527 L1538.433,419.502 L1627.802,504.53 L1626.871,505.259 L1538.420,421.577 ZM1634.655,465.314 L1621.313,477.937 L1620.381,476.731 L1634.655,463.225 L1648.930,476.731 L1647.998,477.937 L1634.655,465.314 ZM1634.655,431.672 L1606.290,458.509 L1605.358,457.303 L1634.655,429.584 L1663.955,457.303 L1663.23,458.509 L1634.655,431.672 ZM1634.655,398.30 L1591.268,439.81 L1590.336,437.875 L1634.655,395.942 L1678.978,437.875 L1678.46,439.81 L1634.655,398.30 ZM1634.655,364.388 L1574.231,421.557 L1574.976,422.519 L1538.420,387.935 L1501.866,422.518 L1507.941,414.659 L1538.396,385.870 L1538.409,385.885 L1538.433,385.861 L1569.41,414.818 L1573.299,420.352 L1634.655,362.300 L1694.1,418.448 L1693.72,419.654 L1634.655,364.388 ZM1634.655,330.747 L1561.219,400.227 L1560.287,399.20 L1634.655,328.659 L1709.26,399.20 L1708.94,400.227 L1634.655,330.747 ZM1035.355,274.561 L1034.424,275.766 L960.998,206.298 L887.573,275.766 L886.641,274.561 L960.998,204.210 L1035.355,274.561 ZM842.881,274.561 L841.952,275.765 L768.527,206.298 L695.99,275.766 L694.167,274.561 L768.524,204.210 L842.881,274.561 ZM650.410,274.561 L649.479,275.766 L576.53,206.298 L502.625,275.766 L501.693,274.561 L576.50,204.210 L650.410,274.561 ZM569.208,379.593 L568.277,380.799 L479.815,297.105 L391.355,380.799 L390.421,379.593 L479.815,295.17 L569.208,379.593 ZM427.888,313.416 L426.956,314.622 L383.579,273.581 L340.201,314.620 L339.269,313.416 L383.579,271.493 L427.888,313.416 ZM213.905,400.227 L212.973,399.20 L287.342,328.659 L361.712,399.20 L360.779,400.227 L287.342,330.747 L213.905,400.227 ZM355.225,334.49 L354.293,332.843 L383.579,305.135 L412.866,332.843 L411.932,334.50 L383.579,307.223 L355.225,334.49 ZM383.579,340.865 L370.248,353.477 L369.316,352.270 L383.579,338.777 L397.841,352.270 L396.910,353.477 L383.579,340.865 ZM383.578,385.846 L414.200,414.818 L418.458,420.352 L479.815,362.300 L539.160,418.448 L538.228,419.653 L479.815,364.388 L419.390,421.557 L420.141,422.526 L383.579,387.935 L347.20,422.524 L353.100,414.659 L383.578,385.846 ZM472.959,504.53 L472.30,505.258 L383.579,421.577 L295.128,505.259 L294.195,504.53 L383.578,419.488 L472.959,504.53 ZM243.20,437.875 L287.342,395.942 L331.665,437.875 L330.732,439.81 L287.342,398.30 L243.952,439.81 L243.20,437.875 ZM258.44,457.303 L287.342,429.584 L316.641,457.303 L315.709,458.508 L287.342,431.672 L258.976,458.509 L258.44,457.303 ZM273.68,476.731 L287.342,463.225 L301.615,476.731 L300.684,477.937 L287.342,465.314 L274.0,477.937 L273.68,476.731 ZM310.153,524.686 L309.221,523.481 L383.578,453.130 L457.937,523.481 L457.5,524.686 L383.579,455.219 L310.153,524.686 ZM960.998,455.219 L887.573,524.686 L886.641,523.481 L960.998,453.130 L1035.355,523.481 L1034.424,524.686 L960.998,455.219 ZM960.998,421.577 L872.550,505.259 L871.618,504.53 L960.998,419.488 L1050.381,504.53 L1049.449,505.259 L960.998,421.577 ZM1043.894,477.937 L1042.962,476.731 L1057.237,463.225 L1071.511,476.731 L1070.579,477.937 L1057.237,465.314 L1043.894,477.937 ZM1236.368,477.937 L1235.436,476.731 L1249.710,463.225 L1263.982,476.731 L1263.53,477.936 L1249.710,465.314 L1236.368,477.937 ZM1442.181,465.314 L1428.839,477.936 L1427.910,476.731 L1442.181,463.225 L1456.456,476.731 L1455.524,477.937 L1442.181,465.314 ZM1442.181,431.672 L1413.816,458.509 L1412.885,457.303 L1442.181,429.584 L1471.481,457.303 L1470.550,458.509 L1442.181,431.672 ZM1442.181,398.30 L1398.794,439.81 L1397.862,437.875 L1442.181,395.942 L1486.504,437.875 L1485.572,439.81 L1442.181,398.30 ZM1442.181,364.388 L1381.757,421.558 L1382.503,422.519 L1345.946,387.935 L1309.392,422.518 L1315.467,414.659 L1345.922,385.870 L1345.935,385.885 L1345.959,385.861 L1376.568,414.818 L1380.825,420.352 L1442.181,362.300 L1501.529,418.450 L1500.598,419.654 L1442.181,364.388 ZM1442.181,330.747 L1368.745,400.227 L1367.814,399.20 L1442.181,328.659 L1516.552,399.20 L1515.620,400.227 L1442.181,330.747 ZM1345.935,271.532 L1345.959,271.508 L1390.255,313.416 L1389.323,314.622 L1345.946,273.581 L1302.569,314.620 L1301.637,313.416 L1345.922,271.517 L1345.935,271.532 ZM1317.591,334.49 L1316.660,332.843 L1345.922,305.159 L1345.935,305.171 L1345.959,305.148 L1375.232,332.843 L1374.301,334.49 L1345.946,307.223 L1317.591,334.49 ZM1345.946,340.865 L1332.617,353.477 L1331.685,352.270 L1345.919,338.802 L1345.935,338.817 L1345.959,338.792 L1360.209,352.270 L1359.278,353.477 L1345.946,340.865 ZM1339.104,379.591 L1338.169,380.799 L1249.710,297.105 L1161.249,380.799 L1160.317,379.593 L1249.710,295.17 L1339.104,379.591 ZM1197.781,313.416 L1196.849,314.622 L1153.472,273.581 L1110.95,314.620 L1109.163,313.416 L1153.472,271.493 L1197.781,313.416 ZM1146.630,379.593 L1145.698,380.799 L1057.237,297.105 L968.775,380.799 L967.843,379.593 L1057.237,295.17 L1146.630,379.593 ZM1005.307,313.416 L1004.378,314.620 L960.998,273.581 L917.621,314.620 L916.689,313.416 L960.998,271.493 L1005.307,313.416 ZM954.156,379.593 L953.224,380.799 L864.763,297.105 L776.301,380.799 L775.369,379.593 L864.763,295.17 L954.156,379.593 ZM812.836,313.416 L811.904,314.622 L768.527,273.581 L725.147,314.620 L724.216,313.416 L768.524,271.493 L812.836,313.416 ZM761.682,379.593 L760.750,380.799 L672.289,297.105 L583.827,380.799 L582.895,379.593 L672.289,295.17 L761.682,379.593 ZM531.742,313.416 L576.53,271.493 L620.362,313.416 L619.430,314.622 L576.53,273.581 L532.673,314.620 L531.742,313.416 ZM546.767,332.843 L576.53,305.135 L605.339,332.842 L604.405,334.50 L576.53,307.223 L547.699,334.49 L546.767,332.843 ZM561.790,352.270 L576.53,338.777 L590.314,352.270 L589.382,353.477 L576.53,340.865 L562.721,353.477 L561.790,352.270 ZM658.946,477.937 L658.15,476.731 L672.289,463.225 L686.563,476.731 L685.631,477.937 L672.289,465.314 L658.946,477.937 ZM701.586,457.303 L700.654,458.509 L672.289,431.672 L643.923,458.509 L642.992,457.303 L672.289,429.584 L701.586,457.303 ZM627.966,437.875 L672.289,395.942 L716.611,437.875 L715.679,439.81 L672.289,398.30 L628.898,439.81 L627.966,437.875 ZM864.763,465.314 L851.420,477.937 L850.488,476.731 L864.763,463.225 L879.37,476.731 L878.105,477.937 L864.763,465.314 ZM864.763,431.672 L836.397,458.509 L835.466,457.303 L864.763,429.584 L894.60,457.303 L893.128,458.509 L864.763,431.672 ZM864.763,398.30 L821.372,439.81 L820.440,437.875 L864.763,395.942 L909.85,437.875 L908.153,439.81 L864.763,398.30 ZM598.852,400.227 L597.921,399.20 L672.289,328.659 L746.659,399.19 L745.725,400.227 L672.289,330.747 L598.852,400.227 ZM739.241,332.843 L768.527,305.135 L797.811,332.843 L796.879,334.49 L768.527,307.223 L740.173,334.49 L739.241,332.843 ZM768.527,340.865 L755.195,353.477 L754.263,352.270 L768.524,338.777 L782.788,352.270 L781.856,353.477 L768.527,340.865 ZM864.763,364.388 L804.338,421.557 L805.89,422.526 L768.527,387.935 L731.962,422.528 L737.981,414.744 L768.524,385.846 L799.149,414.818 L800.643,416.777 L803.406,420.350 L864.763,362.300 L924.108,418.448 L923.176,419.653 L864.763,364.388 ZM791.324,400.227 L790.392,399.20 L864.763,328.659 L939.133,399.19 L938.199,400.227 L864.763,330.747 L791.324,400.227 ZM932.644,334.47 L931.715,332.843 L961.1,305.135 L990.284,332.843 L989.353,334.49 L960.998,307.223 L932.644,334.47 ZM960.998,340.865 L947.669,353.477 L946.738,352.270 L961.1,338.777 L975.262,352.270 L974.330,353.477 L960.998,340.865 ZM983.798,400.227 L982.866,399.20 L1057.237,328.659 L1131.604,399.20 L1130.673,400.227 L1057.237,330.747 L983.798,400.227 ZM1125.118,334.49 L1124.186,332.843 L1153.472,305.135 L1182.758,332.843 L1181.826,334.49 L1153.472,307.223 L1125.118,334.49 ZM1153.472,340.865 L1140.143,353.477 L1139.211,352.270 L1153.472,338.777 L1167.736,352.270 L1166.804,353.477 L1153.472,340.865 ZM1176.271,400.227 L1175.340,399.20 L1249.710,328.659 L1324.78,399.20 L1323.147,400.227 L1249.710,330.747 L1176.271,400.227 ZM1279.7,457.303 L1278.76,458.509 L1249.710,431.672 L1221.342,458.509 L1220.411,457.303 L1249.710,429.584 L1279.7,457.303 ZM1205.388,437.875 L1249.710,395.942 L1294.30,437.875 L1293.98,439.81 L1249.710,398.30 L1206.320,439.81 L1205.388,437.875 ZM1153.472,387.935 L1116.918,422.518 L1120.901,417.366 L1122.993,414.659 L1153.472,385.846 L1184.97,414.818 L1185.588,416.777 L1188.354,420.350 L1249.710,362.300 L1309.55,418.450 L1308.124,419.653 L1249.710,364.388 L1189.283,421.558 L1190.29,422.519 L1153.472,387.935 ZM1086.534,457.303 L1085.602,458.509 L1057.237,431.672 L1028.871,458.509 L1027.937,457.301 L1057.237,429.584 L1086.534,457.303 ZM1012.914,437.875 L1057.237,395.942 L1101.559,437.876 L1100.627,439.81 L1057.237,398.30 L1013.846,439.81 L1012.914,437.875 ZM960.998,387.935 L924.439,422.525 L928.427,417.366 L930.519,414.659 L960.998,385.846 L991.623,414.818 L993.117,416.777 L995.880,420.350 L1057.237,362.300 L1116.582,418.448 L1115.650,419.653 L1057.237,364.388 L996.811,421.557 L997.563,422.529 L960.998,387.935 ZM841.952,524.684 L768.527,455.219 L695.99,524.686 L694.167,523.481 L768.524,453.130 L842.881,523.481 L841.952,524.684 ZM679.145,504.53 L768.524,419.488 L857.907,504.53 L856.975,505.259 L768.527,421.577 L680.76,505.259 L679.145,504.53 ZM649.479,524.686 L576.53,455.219 L502.625,524.686 L501.693,523.481 L576.50,453.130 L650.410,523.481 L649.479,524.686 ZM665.433,504.53 L664.501,505.259 L576.53,421.577 L487.602,505.259 L486.671,504.53 L576.53,419.488 L665.433,504.53 ZM435.492,437.875 L479.815,395.942 L524.137,437.875 L523.206,439.81 L479.815,398.30 L436.424,439.81 L435.492,437.875 ZM494.89,476.731 L493.157,477.937 L479.815,465.314 L466.472,477.937 L465.541,476.731 L479.815,463.225 L494.89,476.731 ZM450.518,457.303 L479.815,429.584 L509.112,457.303 L508.183,458.508 L479.815,431.672 L451.450,458.509 L450.518,457.303 ZM406.377,400.227 L405.445,399.20 L479.815,328.659 L554.185,399.19 L553.251,400.227 L479.815,330.747 L406.377,400.227 ZM606.675,414.818 L608.167,416.777 L610.932,420.350 L672.289,362.300 L731.634,418.448 L730.702,419.653 L672.289,364.388 L611.864,421.557 L612.615,422.526 L576.53,387.935 L539.488,422.526 L545.574,414.661 L576.50,385.846 L606.675,414.818 ZM1442.181,297.105 L1353.723,380.799 L1352.788,379.591 L1442.181,295.17 L1531.578,379.591 L1530.643,380.799 L1442.181,297.105 ZM1538.420,340.865 L1525.88,353.475 L1524.159,352.270 L1538.396,338.801 L1538.409,338.816 L1538.433,338.792 L1552.683,352.270 L1551.752,353.477 L1538.420,340.865 ZM1495.43,314.620 L1494.111,313.416 L1538.396,271.517 L1538.409,271.532 L1538.433,271.508 L1582.729,313.416 L1581.797,314.622 L1538.420,273.581 L1495.43,314.620 ZM1538.420,307.223 L1510.66,334.49 L1509.134,332.843 L1538.396,305.159 L1538.409,305.171 L1538.433,305.148 L1567.706,332.843 L1566.774,334.49 L1538.420,307.223 ZM1345.959,453.144 L1420.303,523.481 L1419.372,524.686 L1345.946,455.219 L1272.520,524.686 L1271.589,523.481 L1345.922,453.154 L1345.935,453.169 L1345.959,453.144 ZM1256.563,504.53 L1345.922,419.512 L1345.935,419.527 L1345.959,419.502 L1435.329,504.53 L1434.397,505.259 L1345.946,421.577 L1257.495,505.259 L1256.563,504.53 ZM1227.829,523.481 L1226.897,524.686 L1153.472,455.219 L1080.47,524.686 L1079.115,523.481 L1153.472,453.130 L1227.829,523.481 ZM1064.89,504.52 L1153.472,419.488 L1242.855,504.53 L1241.923,505.259 L1153.472,421.577 L1065.24,505.259 L1064.89,504.52 ZM990.284,581.764 L989.353,582.970 L960.998,556.143 L932.644,582.968 L931.715,581.764 L961.1,554.55 L990.284,581.764 ZM916.689,562.336 L960.998,520.413 L1005.307,562.336 L1004.378,563.540 L960.998,522.502 L917.621,563.542 L916.689,562.336 ZM829.81,545.831 L834.270,539.118 L864.763,510.295 L895.395,539.277 L899.655,544.810 L960.998,486.772 L1020.333,542.908 L1019.401,544.114 L961.1,488.860 L900.587,546.16 L901.335,546.983 L864.763,512.382 L828.187,546.986 L828.939,546.16 L827.266,544.433 L829.81,545.831 ZM797.811,581.764 L796.879,582.970 L768.527,556.143 L740.173,582.970 L739.241,581.764 L768.527,554.55 L797.811,581.764 ZM724.216,562.336 L768.524,520.413 L812.836,562.336 L811.904,563.542 L768.527,522.502 L725.147,563.542 L724.216,562.336 ZM636.607,545.831 L641.796,539.118 L672.289,510.295 L702.921,539.277 L707.181,544.810 L768.524,486.772 L827.859,542.908 L826.927,544.114 L768.527,488.860 L708.113,546.16 L708.861,546.983 L672.289,512.382 L635.713,546.986 L636.465,546.16 L634.792,544.433 L636.607,545.831 ZM605.339,581.762 L604.405,582.970 L576.53,556.143 L547.699,582.970 L546.767,581.764 L576.53,554.55 L605.339,581.762 ZM531.742,562.336 L576.53,520.413 L620.362,562.336 L619.430,563.542 L576.53,522.502 L532.673,563.542 L531.742,562.336 ZM444.134,545.831 L449.325,539.120 L479.815,510.295 L510.447,539.277 L514.707,544.810 L576.53,486.772 L635.385,542.908 L634.453,544.114 L576.53,488.860 L515.639,546.16 L516.388,546.982 L479.815,512.382 L443.239,546.987 L443.991,546.16 L442.319,544.433 L444.134,545.831 ZM383.651,554.123 L412.866,581.764 L411.932,582.970 L383.579,556.143 L355.225,582.970 L354.293,581.764 L383.554,554.79 L383.625,554.150 L383.651,554.123 ZM339.269,562.336 L383.552,520.439 L383.625,520.511 L383.652,520.483 L427.888,562.336 L426.956,563.542 L383.579,522.502 L340.201,563.542 L339.269,562.336 ZM117.679,524.686 L116.747,523.481 L191.106,453.130 L265.463,523.481 L264.531,524.686 L191.106,455.219 L117.679,524.686 ZM317.973,539.277 L322.233,544.810 L383.579,486.772 L442.911,542.908 L441.979,544.114 L383.579,488.860 L323.165,546.16 L323.908,546.976 L287.342,512.382 L250.770,546.985 L251.518,546.16 L249.849,544.436 L251.661,545.831 L256.853,539.120 L287.342,510.295 L317.973,539.277 ZM376.736,379.593 L375.803,380.799 L287.342,297.105 L198.881,380.799 L197.949,379.593 L287.342,295.17 L376.736,379.593 ZM146.795,313.416 L191.106,271.493 L235.414,313.416 L234.483,314.622 L191.106,273.581 L147.727,314.620 L146.795,313.416 ZM205.367,352.270 L204.436,353.477 L191.106,340.865 L177.775,353.477 L176.843,352.270 L191.106,338.777 L205.367,352.270 ZM161.819,332.843 L191.106,305.135 L220.392,332.842 L219.459,334.50 L191.106,307.223 L162.751,334.49 L161.819,332.843 ZM310.153,275.766 L309.221,274.561 L383.578,204.210 L457.937,274.561 L457.5,275.766 L383.579,206.298 L310.153,275.766 ZM514.707,295.891 L576.53,237.851 L635.385,293.989 L634.453,295.194 L576.53,239.940 L515.639,297.96 L516.388,298.63 L479.815,263.464 L443.239,298.67 L443.991,297.96 L442.316,295.512 L444.134,296.912 L449.325,290.200 L479.815,261.375 L510.447,290.357 L514.707,295.891 ZM451.450,209.589 L450.518,208.382 L479.815,180.664 L509.112,208.382 L508.183,209.588 L479.815,182.752 L451.450,209.589 ZM479.815,216.394 L466.472,229.17 L465.541,227.811 L479.815,214.305 L494.89,227.811 L493.157,229.17 L479.815,216.394 ZM707.181,295.891 L768.524,237.851 L827.859,293.989 L826.927,295.194 L768.527,239.940 L708.113,297.96 L708.861,298.63 L672.289,263.464 L635.713,298.67 L636.465,297.96 L634.790,295.511 L636.607,296.910 L641.796,290.198 L672.289,261.375 L702.921,290.357 L707.181,295.891 ZM643.923,209.589 L642.992,208.382 L672.289,180.664 L701.586,208.382 L700.654,209.589 L672.289,182.752 L643.923,209.589 ZM672.289,216.394 L658.946,229.17 L658.15,227.811 L672.289,214.305 L686.563,227.811 L685.631,229.17 L672.289,216.394 ZM899.655,295.891 L960.998,237.851 L1020.333,293.989 L1019.401,295.194 L961.1,239.940 L900.587,297.96 L901.335,298.63 L864.763,263.464 L828.187,298.67 L828.939,297.96 L827.264,295.511 L829.81,296.910 L834.270,290.198 L864.763,261.375 L895.395,290.357 L899.655,295.891 ZM836.397,209.589 L835.466,208.382 L864.763,180.664 L894.60,208.382 L893.128,209.589 L864.763,182.752 L836.397,209.589 ZM864.763,216.394 L851.420,229.17 L850.488,227.811 L864.763,214.305 L879.37,227.811 L878.105,229.17 L864.763,216.394 ZM1028.871,209.589 L1027.937,208.381 L1057.237,180.664 L1086.534,208.382 L1085.602,209.589 L1057.237,182.752 L1028.871,209.589 ZM1057.237,216.394 L1043.894,229.17 L1042.962,227.811 L1057.237,214.305 L1071.511,227.811 L1070.579,229.17 L1057.237,216.394 ZM1080.47,275.766 L1079.115,274.561 L1153.472,204.210 L1227.829,274.561 L1226.897,275.766 L1153.472,206.298 L1080.47,275.766 ZM1221.342,209.589 L1220.411,208.382 L1249.710,180.664 L1279.7,208.382 L1278.76,209.589 L1249.710,182.752 L1221.342,209.589 ZM1249.710,216.394 L1236.368,229.17 L1235.436,227.811 L1249.710,214.305 L1263.982,227.811 L1263.53,229.16 L1249.710,216.394 ZM1272.520,275.766 L1271.589,274.561 L1345.922,204.234 L1345.935,204.248 L1345.959,204.225 L1420.303,274.561 L1419.372,275.766 L1345.946,206.298 L1272.520,275.766 ZM1413.816,209.589 L1412.885,208.382 L1442.181,180.664 L1471.481,208.382 L1470.550,209.589 L1442.181,182.752 L1413.816,209.589 ZM1442.181,216.394 L1428.839,229.16 L1427.910,227.811 L1442.181,214.305 L1456.456,227.811 L1455.524,229.17 L1442.181,216.394 ZM1464.992,275.765 L1464.63,274.561 L1538.396,204.234 L1538.409,204.248 L1538.433,204.225 L1612.777,274.561 L1611.845,275.766 L1538.420,206.298 L1464.992,275.765 ZM1538.420,239.940 L1478.6,297.96 L1478.754,298.63 L1442.181,263.464 L1405.614,298.59 L1406.360,297.96 L1345.946,239.940 L1285.532,297.96 L1286.272,298.54 L1249.710,263.464 L1213.135,298.68 L1213.886,297.96 L1153.472,239.940 L1093.61,297.96 L1093.809,298.63 L1057.237,263.464 L1020.661,298.68 L1021.412,297.96 L1019.735,295.509 L1021.555,296.910 L1026.744,290.198 L1057.237,261.375 L1087.869,290.357 L1092.126,295.891 L1153.472,237.851 L1214.818,295.891 L1219.218,290.198 L1249.710,261.375 L1280.343,290.357 L1284.600,295.891 L1345.922,237.875 L1345.935,237.890 L1345.959,237.866 L1407.292,295.891 L1411.692,290.198 L1442.181,261.375 L1472.817,290.357 L1477.74,295.891 L1538.396,237.875 L1538.409,237.890 L1538.433,237.866 L1597.751,293.989 L1596.822,295.193 L1538.420,239.940 ZM1634.655,297.105 L1546.194,380.799 L1545.262,379.593 L1634.655,295.17 L1724.49,379.593 L1723.117,380.799 L1634.655,297.105 ZM1730.894,340.865 L1717.562,353.477 L1716.630,352.270 L1730.870,338.801 L1730.883,338.816 L1730.907,338.792 L1745.154,352.270 L1744.223,353.477 L1730.894,340.865 ZM1687.516,314.620 L1686.582,313.414 L1730.870,271.517 L1730.883,271.533 L1730.910,271.509 L1775.203,313.416 L1774.271,314.622 L1730.894,273.581 L1687.516,314.620 ZM1730.894,307.223 L1702.539,334.49 L1701.608,332.843 L1730.870,305.159 L1730.883,305.171 L1730.907,305.148 L1760.180,332.842 L1759.246,334.49 L1730.894,307.223 ZM1730.894,589.785 L1717.562,602.397 L1716.630,601.192 L1730.870,587.721 L1730.883,587.736 L1730.907,587.712 L1745.154,601.191 L1744.223,602.397 L1730.894,589.785 ZM1687.516,563.542 L1686.582,562.334 L1730.810,520.494 L1730.883,520.579 L1730.969,520.484 L1775.203,562.336 L1774.271,563.542 L1730.894,522.502 L1687.516,563.542 ZM1730.894,556.143 L1702.539,582.970 L1701.608,581.764 L1730.810,554.134 L1730.883,554.216 L1730.966,554.125 L1760.180,581.762 L1759.248,582.968 L1730.894,556.143 ZM1709.26,647.940 L1708.94,649.147 L1634.655,579.667 L1561.219,649.147 L1560.287,647.940 L1634.655,577.578 L1709.26,647.940 ZM1545.262,628.512 L1634.655,543.937 L1724.49,628.512 L1723.117,629.719 L1634.655,546.26 L1546.194,629.719 L1545.262,628.512 ZM1516.552,647.940 L1515.620,649.147 L1442.181,579.667 L1368.745,649.147 L1367.814,647.940 L1442.181,577.578 L1516.552,647.940 ZM1352.788,628.511 L1442.181,543.937 L1531.578,628.511 L1530.643,629.719 L1442.181,546.26 L1353.723,629.719 L1352.788,628.511 ZM1324.78,647.940 L1323.147,649.147 L1249.710,579.667 L1176.271,649.147 L1175.340,647.940 L1249.710,577.578 L1324.78,647.940 ZM1160.317,628.512 L1249.710,543.937 L1339.104,628.511 L1338.169,629.719 L1249.710,546.26 L1161.249,629.719 L1160.317,628.512 ZM1131.604,647.940 L1130.673,649.147 L1057.237,579.667 L983.798,649.147 L982.866,647.940 L1057.237,577.578 L1131.604,647.940 ZM967.843,628.512 L1057.237,543.937 L1146.630,628.512 L1145.698,629.719 L1057.237,546.26 L968.775,629.719 L967.843,628.512 ZM939.133,647.939 L938.199,649.147 L864.763,579.667 L791.324,649.147 L790.392,647.940 L864.763,577.578 L939.133,647.939 ZM775.369,628.512 L864.763,543.937 L954.156,628.512 L953.224,629.719 L864.763,546.26 L776.301,629.719 L775.369,628.512 ZM746.659,647.939 L745.725,649.147 L672.289,579.667 L598.852,649.147 L597.921,647.940 L672.289,577.578 L746.659,647.939 ZM582.895,628.512 L672.289,543.937 L761.682,628.512 L760.750,629.719 L672.289,546.26 L583.827,629.719 L582.895,628.512 ZM554.185,647.939 L553.251,649.147 L479.815,579.667 L406.377,649.147 L405.445,647.940 L479.815,577.578 L554.185,647.939 ZM390.421,628.512 L479.815,543.937 L569.208,628.512 L568.277,629.719 L479.815,546.26 L391.355,629.719 L390.421,628.512 ZM361.712,647.940 L360.779,649.147 L287.342,579.667 L213.905,649.147 L212.973,647.940 L287.342,577.578 L361.712,647.940 ZM197.949,628.512 L287.342,543.937 L376.736,628.512 L375.803,629.719 L287.342,546.26 L198.881,629.719 L197.949,628.512 ZM169.238,647.940 L168.306,649.147 L94.869,579.667 L21.431,649.147 L20.499,647.940 L94.869,577.578 L169.238,647.940 ZM5.475,628.512 L94.869,543.937 L184.262,628.512 L183.329,629.719 L94.869,546.26 L6.407,629.719 L5.475,628.512 ZM1730.894,172.657 L1642.443,256.339 L1641.511,255.133 L1730.870,170.592 L1730.883,170.608 L1730.910,170.584 L1820.274,255.133 L1819.345,256.338 L1730.894,172.657 ZM1827.129,216.394 L1813.787,229.17 L1812.855,227.811 L1827.129,214.305 L1841.403,227.811 L1840.472,229.17 L1827.129,216.394 ZM1827.129,182.752 L1798.764,209.589 L1797.832,208.382 L1827.129,180.664 L1856.426,208.382 L1855.497,209.588 L1827.129,182.752 ZM1827.129,149.110 L1783.739,190.161 L1782.807,188.955 L1827.129,147.22 L1871.452,188.955 L1870.520,190.161 L1827.129,149.110 ZM1827.129,115.468 L1766.704,172.637 L1767.458,173.610 L1730.894,139.15 L1694.324,173.614 L1696.912,170.271 L1700.415,165.740 L1730.870,136.950 L1730.883,136.965 L1730.907,136.941 L1761.515,165.897 L1765.773,171.432 L1827.129,113.380 L1886.474,169.528 L1885.543,170.733 L1827.129,115.468 ZM1827.129,81.827 L1753.693,151.307 L1752.761,150.100 L1827.129,79.738 L1901.500,150.100 L1900.568,151.307 L1827.129,81.827 ZM1916.523,130.672 L1915.591,131.878 L1827.129,48.185 L1738.668,131.878 L1737.736,130.672 L1827.129,46.97 L1916.523,130.672 ZM1730.883,56.376 L1730.966,56.284 L1760.180,83.922 L1759.248,85.128 L1730.894,58.303 L1702.539,85.129 L1701.608,83.924 L1730.810,56.294 L1730.883,56.376 ZM1730.870,89.881 L1730.883,89.895 L1730.907,89.871 L1745.154,103.350 L1744.223,104.556 L1730.894,91.945 L1717.562,104.556 L1716.630,103.351 L1730.870,89.881 ZM1709.26,150.100 L1708.94,151.307 L1634.655,81.827 L1561.219,151.307 L1560.287,150.100 L1634.655,79.738 L1709.26,150.100 ZM1724.49,130.672 L1723.117,131.878 L1634.655,48.185 L1546.194,131.878 L1545.262,130.672 L1634.655,46.97 L1724.49,130.672 ZM1538.409,56.376 L1538.492,56.284 L1567.706,83.924 L1566.774,85.129 L1538.420,58.303 L1510.66,85.129 L1509.134,83.924 L1538.336,56.294 L1538.409,56.376 ZM1538.396,89.881 L1538.409,89.895 L1538.433,89.871 L1552.683,103.350 L1551.752,104.556 L1538.420,91.945 L1525.88,104.555 L1524.159,103.351 L1538.396,89.881 ZM1516.552,150.100 L1515.620,151.307 L1442.181,81.827 L1368.745,151.307 L1367.814,150.100 L1442.181,79.738 L1516.552,150.100 ZM1531.578,130.671 L1530.643,131.878 L1442.181,48.185 L1353.723,131.878 L1352.788,130.671 L1442.181,46.97 L1531.578,130.671 ZM1345.935,56.376 L1346.19,56.284 L1375.232,83.924 L1374.301,85.129 L1345.946,58.303 L1317.591,85.129 L1316.660,83.924 L1345.863,56.294 L1345.935,56.376 ZM1345.919,89.882 L1345.935,89.897 L1345.959,89.871 L1360.209,103.350 L1359.278,104.556 L1345.946,91.945 L1332.617,104.556 L1331.685,103.351 L1345.919,89.882 ZM1324.78,150.100 L1323.147,151.307 L1249.710,81.827 L1176.271,151.307 L1175.340,150.100 L1249.710,79.738 L1324.78,150.100 ZM1339.104,130.671 L1338.169,131.878 L1249.710,48.185 L1161.249,131.878 L1160.317,130.672 L1249.710,46.97 L1339.104,130.671 ZM1182.758,83.924 L1181.826,85.129 L1153.472,58.303 L1125.118,85.129 L1124.186,83.924 L1153.472,56.215 L1182.758,83.924 ZM1153.475,89.856 L1167.736,103.350 L1166.804,104.556 L1153.472,91.945 L1140.143,104.556 L1139.211,103.351 L1153.475,89.856 ZM1131.604,150.100 L1130.673,151.307 L1057.237,81.827 L983.798,151.307 L982.866,150.100 L1057.237,79.738 L1131.604,150.100 ZM1146.630,130.672 L1145.698,131.878 L1057.237,48.185 L968.775,131.878 L967.843,130.672 L1057.237,46.97 L1146.630,130.672 ZM990.284,83.924 L989.353,85.129 L960.998,58.303 L932.644,85.128 L931.715,83.924 L961.1,56.215 L990.284,83.924 ZM961.1,89.856 L975.262,103.350 L974.330,104.556 L960.998,91.945 L947.669,104.556 L946.738,103.351 L961.1,89.856 ZM939.133,150.99 L938.199,151.307 L864.763,81.827 L791.324,151.307 L790.392,150.100 L864.763,79.738 L939.133,150.99 ZM954.156,130.672 L953.224,131.878 L864.763,48.185 L776.301,131.878 L775.369,130.672 L864.763,46.97 L954.156,130.672 ZM797.811,83.924 L796.879,85.129 L768.527,58.303 L740.173,85.129 L739.241,83.924 L768.527,56.215 L797.811,83.924 ZM768.527,89.856 L782.788,103.350 L781.856,104.556 L768.527,91.945 L755.195,104.556 L754.263,103.351 L768.527,89.856 ZM746.659,150.99 L745.725,151.307 L672.289,81.827 L598.852,151.307 L597.921,150.100 L672.289,79.738 L746.659,150.99 ZM761.682,130.672 L760.750,131.878 L672.289,48.185 L583.827,131.878 L582.895,130.672 L672.289,46.97 L761.682,130.672 ZM605.339,83.922 L604.405,85.129 L576.53,58.303 L547.699,85.129 L546.767,83.924 L576.53,56.215 L605.339,83.922 ZM576.53,89.856 L590.314,103.350 L589.382,104.556 L576.53,91.945 L562.721,104.556 L561.790,103.351 L576.53,89.856 ZM554.185,150.99 L553.251,151.307 L479.815,81.827 L406.377,151.307 L405.445,150.100 L479.815,79.738 L554.185,150.99 ZM569.208,130.672 L568.277,131.878 L479.815,48.185 L391.355,131.878 L390.421,130.672 L479.815,46.97 L569.208,130.672 ZM383.625,56.310 L383.651,56.283 L412.866,83.924 L411.932,85.129 L383.579,58.303 L355.225,85.129 L354.293,83.924 L383.554,56.239 L383.625,56.310 ZM383.579,89.856 L397.841,103.350 L396.910,104.556 L383.579,91.945 L370.248,104.556 L369.317,103.351 L383.579,89.856 ZM361.712,150.100 L360.779,151.307 L287.342,81.827 L213.905,151.307 L212.973,150.100 L287.342,79.738 L361.712,150.100 ZM376.736,130.672 L375.803,131.878 L287.342,48.185 L198.881,131.878 L197.949,130.672 L287.342,46.97 L376.736,130.672 ZM191.37,56.310 L191.120,56.228 L220.392,83.924 L219.459,85.129 L191.106,58.303 L162.751,85.129 L161.819,83.924 L191.22,56.294 L191.37,56.310 ZM191.106,89.856 L205.367,103.350 L204.436,104.556 L191.106,91.945 L177.775,104.556 L176.843,103.351 L191.106,89.856 ZM169.238,150.100 L168.306,151.307 L94.869,81.827 L21.431,151.307 L20.499,150.100 L94.869,79.738 L169.238,150.100 ZM5.475,130.672 L94.869,46.97 L184.262,130.672 L183.329,131.878 L94.869,48.185 L6.407,131.878 L5.475,130.672 ZM1841.403,725.651 L1840.472,726.858 L1827.129,714.234 L1813.787,726.858 L1812.855,725.651 L1827.129,712.145 L1841.403,725.651 Z"/>
</svg>