<svg 
 xmlns="http://www.w3.org/2000/svg"
 xmlns:xlink="http://www.w3.org/1999/xlink"
 width="9px" height="10px">
<path fill-rule="evenodd"  fill="rgb(114, 114, 114)"
 d="M8.906,5.228 L4.569,9.888 C4.507,9.955 4.435,9.988 4.354,9.988 C4.274,9.988 4.203,9.955 4.141,9.888 L3.675,9.389 C3.613,9.322 3.582,9.245 3.582,9.158 C3.582,9.72 3.613,8.995 3.675,8.928 L7.333,4.998 L3.675,1.68 C3.613,1.2 3.582,0.924 3.582,0.838 C3.582,0.751 3.613,0.674 3.675,0.608 L4.141,0.107 C4.203,0.41 4.274,0.8 4.354,0.8 C4.435,0.8 4.507,0.41 4.569,0.107 L8.906,4.767 C8.968,4.835 8.999,4.912 8.999,4.998 C8.999,5.85 8.968,5.162 8.906,5.228 ZM5.425,4.998 C5.425,5.85 5.394,5.162 5.332,5.228 L0.995,9.888 C0.932,9.955 0.861,9.988 0.780,9.988 C0.700,9.988 0.628,9.955 0.566,9.888 L0.101,9.389 C0.39,9.322 0.8,9.245 0.8,9.158 C0.8,9.72 0.39,8.995 0.101,8.928 L3.759,4.998 L0.101,1.68 C0.39,1.2 0.8,0.924 0.8,0.838 C0.8,0.751 0.39,0.674 0.101,0.608 L0.566,0.107 C0.628,0.41 0.700,0.8 0.780,0.8 C0.861,0.8 0.932,0.41 0.995,0.107 L5.332,4.767 C5.394,4.835 5.425,4.912 5.425,4.998 Z"/>
</svg>