<svg 
 xmlns="http://www.w3.org/2000/svg"
 xmlns:xlink="http://www.w3.org/1999/xlink"
 width="10px" height="8px">
<path fill-rule="evenodd"  fill="rgb(141, 141, 141)"
 d="M9.836,3.624 L6.226,0.151 C6.123,0.52 5.986,0.2 5.840,0.2 C5.693,0.2 5.556,0.52 5.453,0.151 L5.125,0.466 C5.22,0.565 4.966,0.698 4.966,0.839 C4.966,0.980 5.22,1.116 5.125,1.215 L7.231,3.246 L0.541,3.246 C0.239,3.246 0.1,3.473 0.1,3.763 L0.1,4.209 C0.1,4.499 0.239,4.750 0.541,4.750 L7.255,4.750 L5.125,6.792 C5.22,6.890 4.966,7.19 4.966,7.160 C4.966,7.300 5.22,7.431 5.125,7.530 L5.453,7.845 C5.556,7.944 5.693,7.998 5.840,7.998 C5.986,7.998 6.124,7.943 6.227,7.844 L9.836,4.371 C9.939,4.272 9.996,4.139 9.996,3.998 C9.996,3.856 9.939,3.723 9.836,3.624 "/>
</svg>