<svg 
 xmlns="http://www.w3.org/2000/svg"
 xmlns:xlink="http://www.w3.org/1999/xlink"
 width="16px" height="16px">
<path fill-rule="evenodd"  fill="rgb(254, 62, 87)"
 d="M14.124,15.998 L1.874,15.998 C0.841,15.998 0.0,15.158 0.0,14.124 L0.0,3.124 C0.0,2.90 0.841,1.249 1.874,1.249 L2.624,1.249 L2.624,0.0 L3.875,0.0 L3.875,1.249 L12.124,1.249 L12.124,0.0 L13.374,0.0 L13.374,1.249 L14.124,1.249 C15.158,1.249 15.999,2.90 15.999,3.124 L15.999,14.124 C15.999,15.158 15.158,15.998 14.124,15.998 ZM14.749,3.124 C14.749,2.779 14.469,2.499 14.124,2.499 L13.374,2.499 L13.374,3.749 L12.124,3.749 L12.124,2.499 L3.875,2.499 L3.875,3.749 L2.624,3.749 L2.624,2.499 L1.874,2.499 C1.530,2.499 1.249,2.779 1.249,3.124 L1.249,4.624 L14.749,4.624 L14.749,3.124 ZM14.749,5.874 L1.249,5.874 L1.249,14.124 C1.249,14.468 1.530,14.749 1.874,14.749 L14.124,14.749 C14.469,14.749 14.749,14.468 14.749,14.124 L14.749,5.874 ZM12.374,9.686 L13.624,9.686 L13.624,10.936 L12.374,10.936 L12.374,9.686 ZM12.374,7.186 L13.624,7.186 L13.624,8.436 L12.374,8.436 L12.374,7.186 ZM9.874,12.186 L11.124,12.186 L11.124,13.436 L9.874,13.436 L9.874,12.186 ZM9.874,9.686 L11.124,9.686 L11.124,10.936 L9.874,10.936 L9.874,9.686 ZM9.874,7.186 L11.124,7.186 L11.124,8.436 L9.874,8.436 L9.874,7.186 ZM7.374,12.186 L8.624,12.186 L8.624,13.436 L7.374,13.436 L7.374,12.186 ZM7.374,9.686 L8.624,9.686 L8.624,10.936 L7.374,10.936 L7.374,9.686 ZM7.374,7.186 L8.624,7.186 L8.624,8.436 L7.374,8.436 L7.374,7.186 ZM4.874,12.186 L6.124,12.186 L6.124,13.436 L4.874,13.436 L4.874,12.186 ZM4.874,9.686 L6.124,9.686 L6.124,10.936 L4.874,10.936 L4.874,9.686 ZM4.874,7.186 L6.124,7.186 L6.124,8.436 L4.874,8.436 L4.874,7.186 ZM2.374,12.186 L3.624,12.186 L3.624,13.436 L2.374,13.436 L2.374,12.186 ZM2.374,9.686 L3.624,9.686 L3.624,10.936 L2.374,10.936 L2.374,9.686 ZM2.374,7.186 L3.624,7.186 L3.624,8.436 L2.374,8.436 L2.374,7.186 Z"/>
</svg>