<svg
xmlns="http://www.w3.org/2000/svg"
xmlns:xlink="http://www.w3.org/1999/xlink"
width="22px" height="20px">
<path fill-rule="evenodd"  fill="rgb(41, 40, 45)"
d="M21.993,4.718 L19.990,12.756 C19.899,13.120 19.569,13.376 19.191,13.376 L6.378,13.376 C5.998,13.376 5.666,13.117 5.578,12.749 L2.903,1.633 L0.836,1.633 C0.382,1.633 0.13,1.268 0.13,0.816 C0.13,0.365 0.382,0.0 0.836,0.0 L3.552,0.0 C3.933,0.0 4.264,0.259 4.353,0.626 L5.94,3.704 L21.194,3.704 C21.447,3.704 21.686,3.820 21.842,4.18 C21.998,4.216 22.53,4.474 21.993,4.718 ZM5.487,5.339 L7.28,11.741 L18.547,11.741 L20.142,5.339 L5.487,5.339 ZM7.476,14.548 C8.989,14.548 10.219,15.770 10.219,17.272 C10.219,18.775 8.989,19.997 7.476,19.997 C5.963,19.997 4.732,18.775 4.732,17.272 C4.732,15.770 5.963,14.548 7.476,14.548 ZM7.476,18.363 C8.81,18.363 8.573,17.873 8.573,17.272 C8.573,16.672 8.81,16.183 7.476,16.183 C6.871,16.183 6.378,16.672 6.378,17.272 C6.378,17.873 6.871,18.363 7.476,18.363 ZM17.435,14.548 C18.948,14.548 20.179,15.770 20.179,17.272 C20.179,18.775 18.948,19.997 17.435,19.997 C15.922,19.997 14.692,18.775 14.692,17.272 C14.692,15.770 15.922,14.548 17.435,14.548 ZM17.435,18.363 C18.40,18.363 18.533,17.873 18.533,17.272 C18.533,16.672 18.40,16.183 17.435,16.183 C16.830,16.183 16.338,16.672 16.338,17.272 C16.338,17.873 16.830,18.363 17.435,18.363 Z"/>
</svg>