<svg 
 xmlns="http://www.w3.org/2000/svg"
 xmlns:xlink="http://www.w3.org/1999/xlink"
 width="20px" height="21px">
<path fill-rule="evenodd"  fill="rgb(254, 62, 87)"
 d="M17.70,17.621 C15.182,19.510 12.671,20.550 9.999,20.550 C7.328,20.550 4.817,19.510 2.928,17.621 C1.40,15.732 0.0,13.221 0.0,10.550 C0.0,7.879 1.40,5.368 2.928,3.479 C4.817,1.590 7.328,0.550 9.999,0.550 C12.671,0.550 15.182,1.590 17.70,3.479 C18.959,5.368 19.999,7.879 19.999,10.550 C19.999,13.221 18.959,15.732 17.70,17.621 ZM9.999,1.722 C5.132,1.722 1.171,5.682 1.171,10.550 C1.171,15.418 5.132,19.378 9.999,19.378 C14.867,19.378 18.828,15.418 18.828,10.550 C18.828,5.682 14.867,1.722 9.999,1.722 ZM9.188,13.758 C9.74,13.873 8.924,13.930 8.774,13.930 C8.624,13.930 8.474,13.873 8.360,13.758 L5.222,10.620 C4.993,10.392 4.993,10.21 5.222,9.792 C5.451,9.563 5.822,9.563 6.50,9.792 L8.774,12.515 L13.948,7.341 C14.177,7.112 14.548,7.112 14.777,7.341 C15.6,7.570 15.6,7.941 14.777,8.170 L9.188,13.758 Z"/>
</svg>