<svg 
 xmlns="http://www.w3.org/2000/svg"
 xmlns:xlink="http://www.w3.org/1999/xlink"
 width="16px" height="16px">
<path fill-rule="evenodd"  fill="rgb(254, 62, 87)"
 d="M15.374,0.0 L0.624,0.0 C0.279,0.0 0.0,0.279 0.0,0.624 L0.0,12.999 C0.0,13.344 0.279,13.624 0.624,13.624 L6.155,13.624 L7.471,15.708 C7.585,15.889 7.785,15.999 7.999,15.999 C8.214,15.999 8.413,15.889 8.528,15.708 L9.844,13.624 L15.374,13.624 C15.720,13.624 15.999,13.344 15.999,12.999 L15.999,0.624 C15.999,0.279 15.720,0.0 15.374,0.0 ZM14.749,12.374 L9.499,12.374 C9.285,12.374 9.86,12.484 8.971,12.665 L7.999,14.204 L7.28,12.665 C6.913,12.484 6.714,12.374 6.499,12.374 L1.249,12.374 L1.249,1.249 L14.749,1.249 L14.749,12.374 ZM7.218,6.812 C7.218,6.380 7.568,6.30 7.999,6.30 C8.431,6.30 8.781,6.380 8.781,6.812 C8.781,7.243 8.431,7.593 7.999,7.593 C7.568,7.593 7.218,7.243 7.218,6.812 ZM4.93,6.812 C4.93,6.380 4.443,6.30 4.874,6.30 C5.306,6.30 5.656,6.380 5.656,6.812 C5.656,7.243 5.306,7.593 4.874,7.593 C4.443,7.593 4.93,7.243 4.93,6.812 ZM10.343,6.812 C10.343,6.380 10.693,6.30 11.124,6.30 C11.556,6.30 11.906,6.380 11.906,6.812 C11.906,7.243 11.556,7.593 11.124,7.593 C10.693,7.593 10.343,7.243 10.343,6.812 Z"/>
</svg>