<svg 
 xmlns="http://www.w3.org/2000/svg"
 xmlns:xlink="http://www.w3.org/1999/xlink"
 width="18px" height="20px">
<path fill-rule="evenodd"  fill="rgb(254, 62, 87)"
 d="M17.818,18.999 L12.247,13.556 C14.405,11.448 15.868,10.18 17.998,7.937 L17.998,18.246 C17.998,18.517 17.930,18.770 17.818,18.999 ZM15.599,5.107 L17.398,6.866 L15.599,8.624 L15.599,5.107 ZM6.848,12.970 L3.599,9.797 L3.599,0.637 C3.599,0.283 3.893,0.3 4.256,0.3 L13.630,0.3 C14.54,0.3 14.399,0.332 14.399,0.747 L14.399,9.797 L11.150,12.970 L6.848,12.970 ZM8.999,3.591 C10.654,3.591 11.999,4.906 11.999,6.522 C11.999,7.297 10.799,7.297 10.799,6.522 C10.799,5.553 9.991,4.764 8.999,4.764 C8.6,4.764 7.199,5.553 7.199,6.522 C7.199,7.492 8.6,8.281 8.999,8.281 C9.461,8.281 9.879,8.105 10.198,7.824 C11.365,8.853 13.199,8.29 13.199,6.522 C13.199,4.260 11.315,2.419 8.999,2.419 C6.684,2.419 4.799,4.260 4.799,6.522 C4.799,7.927 5.525,9.219 6.739,9.979 C8.12,10.776 9.540,10.820 10.915,10.202 C11.637,9.878 11.129,8.812 10.413,9.137 C9.379,9.601 8.276,9.549 7.385,8.992 C6.517,8.449 5.999,7.525 5.999,6.522 C5.999,4.906 7.344,3.591 8.999,3.591 ZM8.999,7.108 C8.669,7.108 8.399,6.846 8.399,6.522 C8.399,6.199 8.669,5.936 8.999,5.936 C9.315,5.936 9.568,6.178 9.591,6.482 C9.525,6.830 9.414,7.108 8.999,7.108 ZM2.399,5.107 L2.399,8.624 L0.600,6.866 L2.399,5.107 ZM0.180,18.999 C0.68,18.770 0.0,18.517 0.0,18.246 L0.0,7.937 C2.219,10.106 3.616,11.471 5.751,13.556 L0.180,18.999 ZM11.150,14.143 L16.970,19.828 C16.735,19.938 16.476,20.4 16.199,20.4 L1.799,20.4 C1.523,20.4 1.263,19.938 1.28,19.828 L6.848,14.143 L11.150,14.143 Z"/>
</svg>