<?xml version="1.0" encoding="UTF-8"?>
<svg xmlns="http://www.w3.org/2000/svg" xmlns:xlink="http://www.w3.org/1999/xlink" width="15px" height="16px" viewBox="0 0 15 16" version="1.1">
<g id="surface1">
<path style=" stroke:none;fill-rule:nonzero;fill:rgb(0%,0%,0%);fill-opacity:1;" d="M 15 8.179688 C 15 12.601562 12.023438 15.75 7.625 15.75 C 3.40625 15.75 0 12.289062 0 8 C 0 3.710938 3.40625 0.25 7.625 0.25 C 9.675781 0.25 11.402344 1.015625 12.734375 2.277344 L 10.660156 4.304688 C 7.945312 1.644531 2.898438 3.644531 2.898438 8 C 2.898438 10.703125 5.019531 12.894531 7.625 12.894531 C 10.640625 12.894531 11.773438 10.695312 11.949219 9.554688 L 7.625 9.554688 L 7.625 6.886719 L 14.878906 6.886719 C 14.953125 7.285156 15 7.664062 15 8.179688 Z M 15 8.179688 "/>
</g>
</svg>
