<svg
xmlns="http://www.w3.org/2000/svg"
xmlns:xlink="http://www.w3.org/1999/xlink"
width="21px" height="20px">
<path fill-rule="evenodd"  fill="rgb(41, 40, 45)"
d="M19.778,4.588 C19.96,2.169 17.95,0.726 15.605,0.217 C13.902,0.377 11.858,0.217 10.27,1.829 C8.196,0.259 6.152,0.292 4.448,0.259 C2.958,0.811 0.957,2.254 0.275,4.630 C0.192,6.201 0.234,8.747 2.234,11.845 C3.341,13.245 5.45,15.241 6.450,16.811 C9.133,19.825 9.558,19.993 9.941,19.993 C9.984,19.993 9.984,19.993 10.27,19.993 L10.69,19.993 L10.112,19.993 C10.495,19.993 10.878,19.825 13.561,16.769 C14.966,15.155 16.669,13.160 17.776,11.802 C20.246,8.705 20.246,6.158 19.778,4.588 ZM16.499,10.784 C14.540,13.245 11.176,17.108 10.27,18.169 C8.877,17.108 5.513,13.245 3.554,10.784 C1.936,8.790 1.340,6.837 1.851,5.97 C2.362,3.315 3.852,2.254 4.959,1.872 C6.194,1.405 7.855,2.41 9.388,3.527 C9.686,3.824 10.112,3.866 10.452,3.654 C10.538,3.612 10.623,3.569 10.665,3.484 C12.198,2.41 13.859,1.405 15.94,1.829 C16.201,2.254 17.691,3.315 18.202,5.97 C18.713,6.795 18.117,8.790 16.499,10.784 Z"/>
</svg>