<svg 
 xmlns="http://www.w3.org/2000/svg"
 xmlns:xlink="http://www.w3.org/1999/xlink"
 width="16px" height="16px">
<path fill-rule="evenodd"  fill="rgb(114, 114, 114)"
 d="M7.998,0.0 L0.228,6.857 C0.40,7.94 0.69,7.508 0.164,7.781 L0.164,7.781 C0.397,8.54 0.804,8.83 1.73,7.846 L1.360,7.593 L1.360,14.33 C1.360,15.119 2.225,15.999 3.293,15.999 L6.903,15.999 L6.903,10.725 C6.903,10.92 7.408,9.579 8.31,9.579 L8.31,9.579 C8.654,9.579 9.159,10.92 9.159,10.725 L9.159,15.999 L12.704,15.999 C13.772,15.999 14.637,15.119 14.637,14.33 L14.637,7.593 L14.924,7.846 C15.192,8.83 15.600,8.54 15.833,7.781 L15.833,7.781 C16.66,7.508 16.38,7.94 15.769,6.857 L7.998,0.0 ZM13.348,14.33 C13.348,14.395 13.60,14.689 12.704,14.689 L10.448,14.689 L10.448,10.725 C10.448,9.368 9.366,8.268 8.31,8.268 L8.31,8.268 C6.696,8.268 5.614,9.368 5.614,10.725 L5.614,14.689 L3.293,14.689 C2.937,14.689 2.649,14.395 2.649,14.33 L2.649,6.455 L7.998,1.734 L13.348,6.455 L13.348,14.33 Z"/>
</svg>