<svg 
 xmlns="http://www.w3.org/2000/svg"
 xmlns:xlink="http://www.w3.org/1999/xlink"
 width="14px" height="20px">
<path fill-rule="evenodd"  fill="rgb(254, 62, 87)"
 d="M6.997,0.4 C3.139,0.4 0.0,3.251 0.0,7.242 C0.0,12.195 6.261,19.466 6.528,19.773 C6.779,20.62 7.216,20.61 7.466,19.773 C7.732,19.466 13.994,12.195 13.994,7.242 C13.994,3.251 10.855,0.4 6.997,0.4 ZM6.997,10.883 C5.56,10.883 3.476,9.250 3.476,7.242 C3.476,5.234 5.56,3.600 6.997,3.600 C8.938,3.600 10.517,5.234 10.517,7.242 C10.517,9.250 8.938,10.883 6.997,10.883 Z"/>
</svg>