<svg 
 xmlns="http://www.w3.org/2000/svg"
 xmlns:xlink="http://www.w3.org/1999/xlink"
 width="20px" height="20px">
<path fill-rule="evenodd"  fill="rgb(254, 62, 87)"
 d="M19.476,17.248 L19.62,17.663 L14.92,12.689 L14.507,12.274 C15.171,11.610 16.329,11.611 16.992,12.274 L19.476,14.762 C20.162,15.447 20.164,16.560 19.476,17.248 ZM9.613,18.153 L1.839,10.369 C0.514,8.12 0.598,4.263 1.534,1.774 L6.492,6.737 C6.88,7.259 6.104,8.6 6.583,8.485 L11.495,13.405 C11.973,13.884 12.718,13.900 13.241,13.495 L18.200,18.458 C15.572,20.714 11.872,20.414 9.613,18.153 ZM7.298,5.885 L2.328,0.911 L2.742,0.496 C3.406,0.167 4.565,0.166 5.228,0.496 L7.712,2.984 C8.398,3.669 8.400,4.782 7.712,5.470 L7.298,5.885 Z"/>
</svg>