<svg 
 xmlns="http://www.w3.org/2000/svg"
 xmlns:xlink="http://www.w3.org/1999/xlink"
 width="130px" height="130px">
<path fill-rule="evenodd"  opacity="0.2" fill="rgb(254, 62, 87)"
 d="M64.999,0.0 C100.898,0.0 129.999,29.101 129.999,64.999 C129.999,100.898 100.898,129.999 64.999,129.999 C29.101,129.999 0.0,100.898 0.0,64.999 C0.0,29.101 29.101,0.0 64.999,0.0 Z"/>
<path fill-rule="evenodd"  opacity="0.6" fill="rgb(254, 62, 87)"
 d="M64.999,9.999 C95.375,9.999 119.999,34.624 119.999,64.999 C119.999,95.375 95.375,119.999 64.999,119.999 C34.624,119.999 9.999,95.375 9.999,64.999 C9.999,34.624 34.624,9.999 64.999,9.999 Z"/>
<path fill-rule="evenodd"  fill="rgb(254, 62, 87)"
 d="M64.999,19.999 C89.852,19.999 109.999,40.147 109.999,64.999 C109.999,89.852 89.852,109.999 64.999,109.999 C40.147,109.999 19.999,89.852 19.999,64.999 C19.999,40.147 40.147,19.999 64.999,19.999 Z"/>
<path fill-rule="evenodd"  fill="rgb(255, 255, 255)"
 d="M71.815,63.141 L59.991,55.536 C59.445,55.184 58.895,54.999 58.438,54.999 C57.554,54.999 57.7,55.666 57.7,56.781 L57.7,73.218 C57.7,74.333 57.553,74.998 58.435,74.998 C58.893,74.998 59.434,74.812 59.982,74.460 L71.811,66.855 C72.572,66.365 72.993,65.705 72.993,64.998 C72.993,64.290 72.577,63.631 71.815,63.141 "/>
</svg>