<svg
xmlns="http://www.w3.org/2000/svg"
xmlns:xlink="http://www.w3.org/1999/xlink"
width="21px" height="20px">
<path fill-rule="evenodd"  fill="rgb(41, 40, 45)"
d="M19.891,18.696 L14.82,12.886 C15.184,11.525 15.847,9.796 15.847,7.913 C15.847,3.547 12.295,0.3 7.930,0.3 C3.565,0.3 0.14,3.547 0.14,7.913 C0.14,12.278 3.565,15.829 7.930,15.829 C9.813,15.829 11.543,15.166 12.903,14.65 L18.713,19.874 C18.876,20.37 19.140,20.37 19.302,19.874 L19.891,19.285 C20.54,19.122 20.54,18.859 19.891,18.696 ZM7.930,14.163 C4.484,14.163 1.680,11.360 1.680,7.913 C1.680,4.467 4.484,1.663 7.930,1.663 C11.377,1.663 14.180,4.467 14.180,7.913 C14.180,11.360 11.377,14.163 7.930,14.163 Z"/>
</svg>