<svg 
 xmlns="http://www.w3.org/2000/svg"
 xmlns:xlink="http://www.w3.org/1999/xlink"
 width="20px" height="20px">
<path fill-rule="evenodd"  fill="rgb(141, 141, 141)"
 d="M9.999,10.832 C9.539,10.832 9.166,10.458 9.166,9.999 L9.166,4.165 C9.166,3.705 9.539,3.331 9.999,3.331 C10.459,3.331 10.833,3.705 10.833,4.165 L10.833,9.165 L14.166,9.165 C14.626,9.165 14.999,9.539 14.999,9.999 C14.999,10.458 14.626,10.832 14.166,10.832 L9.999,10.832 ZM9.999,19.998 C4.486,19.998 0.0,15.512 0.0,9.999 C0.0,4.485 4.486,0.1 9.999,0.1 C12.251,0.1 14.457,0.765 16.210,2.159 C16.570,2.445 16.630,2.969 16.344,3.329 C16.57,3.690 15.532,3.750 15.173,3.463 C13.692,2.287 11.904,1.666 9.999,1.666 C5.404,1.666 1.666,5.404 1.666,9.999 C1.666,14.593 5.404,18.332 9.999,18.332 C14.594,18.332 18.333,14.593 18.333,9.999 C18.333,8.724 18.55,7.505 17.508,6.374 C17.307,5.959 17.481,5.461 17.895,5.261 C18.308,5.60 18.808,5.233 19.8,5.648 C19.666,7.7 19.999,8.470 19.999,9.999 C19.999,15.512 15.513,19.998 9.999,19.998 Z"/>
</svg>