<svg 
 xmlns="http://www.w3.org/2000/svg"
 xmlns:xlink="http://www.w3.org/1999/xlink"
 width="16px" height="16px">
<path fill-rule="evenodd"  fill="rgb(254, 62, 87)"
 d="M13.656,10.342 C12.785,9.471 11.748,8.826 10.616,8.435 C11.828,7.601 12.624,6.204 12.624,4.624 C12.624,2.74 10.550,0.0 7.999,0.0 C5.449,0.0 3.374,2.74 3.374,4.624 C3.374,6.204 4.171,7.601 5.383,8.435 C4.251,8.826 3.214,9.471 2.343,10.342 C0.832,11.853 0.0,13.862 0.0,15.999 L1.249,15.999 C1.249,12.277 4.277,9.249 7.999,9.249 C11.721,9.249 14.749,12.277 14.749,15.999 L15.999,15.999 C15.999,13.862 15.167,11.853 13.656,10.342 ZM4.624,4.624 C4.624,2.763 6.138,1.249 7.999,1.249 C9.860,1.249 11.374,2.763 11.374,4.624 C11.374,6.485 9.860,7.999 7.999,7.999 C6.138,7.999 4.624,6.485 4.624,4.624 Z"/>
</svg>