<svg 
 xmlns="http://www.w3.org/2000/svg"
 xmlns:xlink="http://www.w3.org/1999/xlink"
 width="20px" height="20px">
<path fill-rule="evenodd"  fill="rgb(141, 141, 141)"
 d="M17.70,12.928 C15.981,11.838 14.685,11.32 13.270,10.544 C14.785,9.501 15.781,7.754 15.781,5.780 C15.781,2.592 13.187,0.1 9.999,0.1 C6.812,0.1 4.218,2.592 4.218,5.780 C4.218,7.754 5.214,9.501 6.728,10.544 C5.314,11.32 4.18,11.838 2.928,12.928 C1.40,14.816 0.0,17.327 0.0,19.998 L1.562,19.998 C1.562,15.346 5.347,11.561 9.999,11.561 C14.652,11.561 18.437,15.346 18.437,19.998 L19.999,19.998 C19.999,17.327 18.959,14.816 17.70,12.928 ZM5.781,5.780 C5.781,3.453 7.673,1.561 9.999,1.561 C12.326,1.561 14.218,3.453 14.218,5.780 C14.218,8.106 12.326,9.999 9.999,9.999 C7.673,9.999 5.781,8.106 5.781,5.780 Z"/>
</svg>